<svg version="1.1" id="Layer_1" xmlns="http://www.w3.org/2000/svg" xmlns:xlink="http://www.w3.org/1999/xlink" x="0px" y="0px"
	 width="100%" viewBox="0 0 941 265" enable-background="new 0 0 0 0" xml:space="preserve">
<path fill="#fffff" opacity="1.000000" stroke="none" 
	d="
M609.000000,266.000000 
	C406.000000,266.000000 203.500000,266.000000 1.000000,266.000000 
	C1.000000,177.666672 1.000000,89.333336 1.000000,1.000000 
	C314.666656,1.000000 628.333313,1.000000 942.000000,1.000000 
	C942.000000,89.333336 942.000000,177.666672 942.000000,266.000000 
	C831.166687,266.000000 720.333313,266.000000 609.000000,266.000000 
M915.990295,27.990221 
	C915.990295,27.990221 915.993408,28.040037 915.359619,28.078962 
	C914.940186,28.133312 914.520752,28.187660 913.289551,28.102409 
	C906.571350,27.229452 899.613037,27.179171 893.187561,25.303493 
	C881.634644,21.931061 869.806030,21.283020 858.099854,21.539124 
	C847.260010,21.776276 836.798767,25.403671 826.637634,29.582375 
	C815.221313,34.277264 804.721130,40.528908 796.081726,49.123241 
	C785.590576,59.559608 774.997192,70.063683 766.465576,82.975510 
	C766.261902,83.044975 766.058289,83.114433 765.388733,83.259933 
	C765.128662,83.469810 764.980225,83.740852 765.037109,84.011711 
	C765.037109,84.011711 764.976257,83.917587 764.055786,83.974907 
	C758.019104,83.704018 751.982361,83.433136 745.075684,83.014297 
	C740.496277,82.682159 735.910095,82.423561 731.339233,81.999359 
	C725.570312,81.463982 719.813965,80.793549 713.330261,79.832100 
	C709.551514,78.950798 705.772827,78.069489 701.542480,77.021729 
	C701.542480,77.021729 701.074097,76.911263 700.770996,76.293358 
	C699.871948,76.257233 698.972961,76.221100 697.371765,75.862228 
	C695.916260,75.627777 694.460815,75.393326 692.272583,75.006477 
	C689.526611,73.969894 686.780579,72.933304 683.676025,71.259674 
	C678.793701,69.154022 673.911438,67.048363 668.711426,64.309219 
	C666.490234,63.172421 664.269104,62.035618 661.733948,60.289295 
	C658.835144,58.507385 655.936401,56.725475 652.763062,54.313660 
	C646.745361,49.201477 640.727600,44.089294 634.709900,38.977112 
	C634.923584,42.859219 635.686951,46.347458 637.189087,49.481602 
	C644.716125,65.186737 652.498291,80.769440 660.061340,96.457611 
	C663.486145,103.561859 666.610535,110.810905 669.864685,118.133987 
	C669.864685,118.133987 670.004272,118.143547 670.011108,118.873550 
	C673.312500,125.608551 676.613892,132.343552 680.241333,139.711761 
	C682.462524,144.699738 684.598022,149.728104 686.926636,154.665436 
	C689.843689,160.850525 692.919128,166.960953 695.985474,173.604294 
	C696.014832,173.769760 696.044250,173.935226 695.875793,174.756439 
	C690.605591,181.398117 685.173828,187.918976 680.098328,194.706284 
	C669.069092,209.455338 658.224060,224.342209 647.298340,239.168793 
	C643.778625,243.945160 640.242065,248.709198 636.713196,253.478882 
	C637.032166,253.844162 637.351074,254.209442 637.669983,254.574722 
	C639.526489,254.153732 641.771118,254.256592 643.171021,253.219360 
	C648.673218,249.142609 653.901611,244.697205 659.245911,240.406418 
	C670.245300,231.575348 681.279724,222.787659 692.248352,213.918610 
	C698.234680,209.078232 704.115906,204.107971 710.737427,199.014328 
	C714.823853,195.870285 718.957336,192.785309 722.986755,189.569870 
	C731.484131,182.789047 739.907715,175.915817 748.397766,169.125763 
	C756.554321,162.602478 764.804871,156.196091 772.926086,149.629517 
	C782.474731,141.908783 791.851807,133.974838 801.442932,126.308006 
	C813.571411,116.612885 825.851013,107.106995 838.046143,97.495033 
	C848.810852,89.010460 859.548950,80.492256 870.854736,71.857948 
	C871.657166,70.953590 872.459534,70.049232 873.629883,68.924675 
	C873.858459,68.743950 874.036377,68.522514 874.864990,68.180916 
	C876.671143,66.818161 878.541138,65.531456 880.271912,64.078949 
	C886.209045,59.096302 892.097351,54.055553 898.035950,49.030018 
	C898.035950,49.030018 898.031372,48.997929 898.617126,48.658199 
	C903.397095,44.771194 908.177063,40.884193 913.009216,37.009388 
	C913.009216,37.009388 912.997009,36.957218 913.643372,36.714767 
	C917.101074,34.084888 920.558716,31.455011 924.016418,28.825132 
	C923.725220,28.364222 923.434082,27.903311 923.142883,27.442400 
	C921.766479,27.621336 920.390137,27.800270 918.997559,27.999304 
	C918.997559,27.999304 919.018494,27.986498 918.817749,27.677000 
	C918.544617,27.783819 918.271423,27.890638 917.485901,28.017378 
	C917.314941,28.015732 917.144043,28.014088 916.796204,27.713234 
	C916.542542,27.812866 916.288818,27.912498 915.990295,27.990221 
M604.114014,212.544418 
	C604.085083,219.179947 604.086426,225.815811 604.011230,232.450821 
	C603.983826,234.865860 604.567627,235.910629 607.044861,233.332611 
	C607.196289,231.976181 607.347717,230.619736 607.546143,228.842407 
	C610.707214,231.225510 613.361572,233.226639 616.015991,235.227783 
	C616.716919,234.374695 617.417847,233.521622 618.118774,232.668533 
	C616.318665,231.514191 614.638733,230.068573 612.693542,229.265869 
	C608.591431,227.573105 609.760742,225.576370 612.107849,223.447433 
	C613.930359,221.794296 615.883972,220.285736 617.779358,218.712921 
	C617.545776,218.332581 617.312134,217.952225 617.078552,217.571869 
	C613.872314,219.139099 610.666077,220.706329 606.920166,222.537323 
	C606.920166,219.609497 607.105408,217.139725 606.825867,214.723724 
	C606.719238,213.801315 605.547913,213.002060 604.114014,212.544418 
M122.915413,239.245209 
	C122.915413,237.388626 122.915413,235.532028 122.915413,233.463730 
	C132.420883,236.545532 137.354462,234.407150 138.080978,227.495361 
	C138.568680,222.855316 134.504852,218.183060 129.792542,218.076538 
	C126.830414,218.009567 123.864700,218.101624 120.110168,218.465515 
	C120.110168,225.853485 120.110168,233.241455 120.110168,241.256500 
	C121.199333,240.798248 122.050240,240.440247 122.915413,239.245209 
M580.879700,174.495697 
	C580.871887,163.716217 580.864136,152.936722 580.949280,141.264420 
	C580.817749,132.343826 583.629211,124.751801 590.707886,118.939911 
	C601.230835,110.300201 617.750488,112.236603 620.837463,127.878479 
	C621.627380,131.880737 621.729126,136.018814 622.054138,141.015411 
	C622.038391,151.115601 621.992065,161.215942 622.047974,171.315720 
	C622.054504,172.495575 622.625854,173.672302 623.839417,174.945374 
	C626.266724,174.926575 628.694092,174.907776 631.894226,174.512772 
	C631.939575,161.790955 632.003540,149.069092 631.985962,136.347351 
	C631.984863,135.556610 631.342834,134.766754 631.033325,133.099747 
	C631.231018,124.519806 629.427673,115.941940 622.380615,111.050011 
	C608.147461,101.169701 594.095459,103.646332 581.277161,115.957611 
	C581.025085,112.287117 580.858154,109.855362 580.669983,107.115074 
	C577.512024,107.115074 574.717285,107.115074 571.139282,107.472870 
	C571.081848,129.284424 571.015991,151.095993 571.007446,172.907562 
	C571.007202,173.567978 571.605652,174.228622 572.831787,174.957642 
	C575.258911,174.931183 577.686035,174.904724 580.879700,174.495697 
M368.828430,174.434937 
	C368.884705,152.707855 368.949219,130.980774 368.959656,109.253685 
	C368.959991,108.560417 368.405151,107.866890 367.213745,107.063652 
	C364.944824,107.063652 362.675934,107.063652 360.353760,107.063652 
	C360.020203,110.722580 359.747223,113.717346 359.446442,117.017151 
	C342.727905,100.722092 321.188965,102.974739 310.488342,112.444138 
	C296.810608,124.548080 291.161835,141.091354 302.609589,159.545151 
	C317.632477,183.762039 338.489014,181.249908 359.788239,166.330002 
	C359.972290,169.322784 360.131836,171.916855 360.312347,174.851822 
	C363.180054,174.851822 365.637207,174.851822 368.828430,174.434937 
M180.925873,140.234818 
	C180.627899,138.789764 180.226898,137.357346 180.047913,135.897705 
	C178.265167,121.359451 170.097336,111.467529 156.507095,107.307091 
	C149.554443,105.178635 141.579224,105.617188 134.152542,106.134766 
	C130.408875,106.395660 126.101944,108.648346 123.358978,111.336388 
	C114.546173,119.972740 109.148155,129.978607 109.795868,143.250977 
	C110.615868,160.053513 121.076126,173.606750 137.801773,176.324203 
	C150.215057,178.341003 161.674805,176.390472 171.260803,167.239044 
	C179.494598,159.378510 179.427155,155.882324 170.357117,152.297668 
	C162.546722,163.896866 149.018524,171.041229 139.993423,168.489670 
	C125.848862,164.490738 120.070343,155.578003 119.940613,142.021957 
	C138.569839,142.014435 157.199158,142.030838 175.828140,141.958710 
	C177.504501,141.952225 179.178665,141.373749 180.925873,140.234818 
M263.994080,107.782738 
	C263.994080,110.706314 263.994080,113.629883 263.994080,116.553459 
	C263.627869,116.892853 263.261627,117.232246 262.895416,117.571648 
	C255.617401,107.420601 245.551361,105.673340 234.205444,105.717239 
	C222.248611,105.763496 214.186813,111.955971 207.330597,120.255058 
	C199.672974,129.524231 200.558640,153.588715 208.083511,161.807312 
	C214.407974,168.714783 221.764633,174.023041 231.226959,174.983734 
	C243.215729,176.200958 254.367767,173.737946 264.002258,163.817551 
	C264.002258,167.522766 264.620667,170.173798 263.874512,172.358871 
	C262.282623,177.020798 261.040009,182.595627 257.695740,185.656754 
	C253.856781,189.170685 248.087219,191.352753 242.820602,192.362640 
	C232.849030,194.274734 222.811737,193.344803 216.264374,184.284317 
	C212.522324,179.105927 208.263626,179.831665 202.911926,180.385376 
	C205.512070,186.944107 208.589752,192.514359 214.606857,195.929199 
	C227.887405,203.466263 241.751389,203.836792 255.737274,198.571594 
	C261.642242,196.348572 267.001831,192.463013 268.972015,186.117813 
	C270.892700,179.932007 271.701813,173.401031 273.835541,166.714630 
	C273.835541,146.534180 273.835541,126.353729 273.835541,105.598946 
	C270.344849,106.059280 267.227478,106.470383 263.994080,107.782738 
M486.490448,171.075592 
	C503.397919,180.774460 519.063232,178.808151 533.799438,165.372253 
	C533.984985,168.919159 534.135437,171.795471 534.279968,174.557800 
	C537.448242,174.557800 540.009766,174.557800 542.631409,174.557800 
	C542.631409,151.934341 542.631409,129.727768 542.631409,107.335892 
	C539.686523,107.335892 537.120239,107.335892 534.301819,107.335892 
	C534.099792,110.762566 533.913513,113.921577 533.694458,117.637093 
	C515.297546,97.895325 489.636078,103.925713 479.980194,116.795387 
	C466.730591,134.454926 469.051544,157.577744 486.490448,171.075592 
M432.481720,159.059418 
	C440.017609,141.965378 447.553528,124.871338 455.163635,107.609001 
	C445.781097,106.220665 445.558624,106.249008 442.738678,112.520508 
	C439.710724,119.254547 436.880676,126.077255 433.899323,132.832611 
	C430.243011,141.117218 426.519409,149.372147 422.541382,158.274445 
	C414.616791,140.673965 407.021179,123.804169 399.575073,107.266388 
	C396.155975,107.266388 393.214691,107.266388 389.435577,107.266388 
	C391.286652,111.299934 392.925201,114.815643 394.518311,118.351822 
	C400.472626,131.568268 406.222015,144.881577 412.433685,157.975708 
	C415.758942,164.985214 418.938110,171.326050 413.514008,179.032623 
	C410.384247,183.479385 408.958008,189.135986 406.845001,194.280884 
	C406.206909,195.834503 405.836700,197.498123 405.184937,199.631134 
	C408.920410,199.631134 411.835876,199.631134 414.865692,199.631134 
	C420.619110,186.395996 426.405914,173.084045 432.481720,159.059418 
M36.852493,130.569870 
	C39.143791,135.638702 41.369904,140.738235 43.741013,145.769455 
	C47.723904,154.220688 51.780125,162.637604 55.854473,171.045212 
	C56.512455,172.402985 57.423683,173.638016 58.217846,174.929794 
	C59.435349,173.763321 61.123432,172.819641 61.797451,171.395889 
	C68.421356,157.404037 74.903091,143.344513 81.368675,129.278229 
	C84.648903,122.141907 87.813698,114.952530 91.093040,107.648216 
	C81.581169,106.090851 81.255531,106.393829 77.672981,114.573792 
	C73.270058,124.626877 68.691528,134.604660 64.062897,144.556396 
	C62.460293,148.002045 60.480881,151.272430 58.460052,155.018723 
	C51.623554,140.507706 45.046265,126.670715 38.585846,112.779373 
	C35.572853,106.300766 34.724159,105.834000 26.430902,108.060776 
	C29.924437,115.399223 33.353794,122.602867 36.852493,130.569870 
M369.478851,221.140381 
	C368.459808,226.272675 369.642303,230.930435 374.245422,233.492935 
	C378.780975,236.017822 384.126678,237.097229 388.733032,233.674789 
	C391.521606,231.602921 394.152710,228.677048 392.474731,223.972137 
	C389.419495,224.126190 386.412628,224.277802 383.405762,224.429413 
	C383.423767,224.838882 383.441772,225.248352 383.459808,225.657822 
	C385.541077,225.900574 387.622375,226.143326 389.639130,226.378555 
	C389.741089,226.932144 389.946716,227.318497 389.838745,227.570358 
	C387.784363,232.361877 381.621887,234.215576 376.478333,231.727905 
	C373.511505,230.292999 370.847900,223.198425 372.848938,220.053970 
	C376.152863,214.862183 381.438873,212.929230 386.147034,215.714050 
	C387.641083,216.597748 389.332550,217.147720 390.933655,217.850418 
	C391.125275,217.336304 391.316895,216.822174 391.508514,216.308044 
	C388.162170,211.864182 383.310852,211.592697 378.340027,212.088257 
	C373.405304,212.580231 370.673065,215.590591 369.478851,221.140381 
M257.948364,230.302414 
	C257.948364,226.549561 257.948364,222.796722 257.948364,219.129349 
	C254.020157,218.719269 250.778229,218.524536 247.587570,218.011230 
	C243.639679,217.376099 241.635193,220.813660 241.396912,222.876465 
	C241.002258,226.292801 238.657440,231.419998 243.830734,233.231995 
	C247.474854,234.508392 251.684738,234.169556 255.658035,234.553482 
	C251.988419,240.596420 246.598419,238.774872 240.184433,235.122803 
	C243.509537,240.333481 248.971954,242.322464 253.522156,240.669403 
	C257.900909,239.078644 257.896912,235.044601 257.948364,230.302414 
M98.025970,228.590164 
	C98.025970,230.398209 98.025970,232.206268 98.025970,234.014313 
	C98.681229,234.001312 99.336494,233.988297 99.991753,233.975281 
	C99.991753,231.457474 99.370903,228.719727 100.163338,226.482620 
	C100.984337,224.164886 103.175438,222.332458 104.767281,220.287750 
	C106.187172,222.411377 108.182907,224.366287 108.868118,226.705154 
	C109.580681,229.137405 109.026955,231.940659 109.026955,234.581665 
	C109.693069,234.569000 110.359192,234.556320 111.025307,234.543640 
	C111.025307,231.364609 111.364784,228.136612 110.915771,225.022324 
	C110.568947,222.616760 109.719788,218.841217 108.230064,218.362366 
	C105.639275,217.529587 102.381683,218.771225 99.584274,219.120605 
	C95.199745,218.811157 90.810768,218.501404 86.843941,218.221451 
	C86.843941,224.075562 86.843941,229.248505 86.843941,234.421432 
	C87.554573,234.401993 88.265198,234.382553 88.975830,234.363113 
	C88.975830,231.538635 88.375816,228.531662 89.162071,225.946289 
	C89.813263,223.805084 92.099655,222.161179 93.661568,220.296951 
	C94.848640,221.676483 96.189285,222.957153 97.164963,224.472763 
	C97.746490,225.376068 97.754860,226.648376 98.025970,228.590164 
M482.945587,224.410599 
	C482.945587,220.795471 482.945587,217.180328 482.945587,213.565201 
	C482.419891,213.563766 481.894196,213.562347 481.368500,213.560913 
	C481.116852,218.198761 480.865234,222.836609 480.559448,228.472549 
	C475.028473,222.410797 470.580414,217.535858 465.750458,212.242401 
	C465.750458,220.514511 465.750458,227.478546 465.750458,234.442566 
	C466.317200,234.466873 466.883911,234.491180 467.450653,234.515488 
	C467.450653,229.801529 467.450653,225.087570 467.450653,218.981140 
	C472.872467,224.766388 477.113800,229.292007 481.355133,233.817627 
	C481.885559,233.571686 482.415985,233.325745 482.946411,233.079803 
	C482.946411,230.501953 482.946411,227.924103 482.945587,224.410599 
M286.396057,217.931747 
	C285.150879,216.475662 283.905701,215.019577 282.660522,213.563492 
	C282.244049,213.757339 281.827576,213.951202 281.411133,214.145050 
	C280.958221,220.917511 280.569427,227.688110 281.564087,234.418503 
	C282.250214,234.434753 282.936310,234.451004 283.622437,234.467255 
	C283.622437,229.771545 283.622437,225.075821 283.622437,220.380112 
	C284.025909,220.339935 284.429413,220.299759 284.832886,220.259567 
	C289.229034,225.032242 293.625214,229.804916 298.610596,235.217285 
	C298.610596,227.254242 298.610596,220.367935 298.610596,213.481644 
	C298.217468,213.449371 297.824371,213.417114 297.431244,213.384842 
	C297.153961,218.076233 296.876678,222.767609 296.519714,228.807266 
	C292.628143,224.608002 289.775482,221.529800 286.396057,217.931747 
M547.049377,222.574905 
	C546.069519,221.018509 545.089661,219.462128 544.208496,218.062500 
	C542.531189,221.506790 540.974121,224.704178 539.127686,228.495865 
	C537.015747,224.535263 535.268433,221.258347 533.521057,217.981430 
	C532.979980,218.256775 532.438965,218.532120 531.897888,218.807480 
	C534.070007,224.308578 536.242126,229.809692 538.867676,236.459106 
	C540.978577,231.747940 542.464050,228.432663 544.243652,224.460983 
	C546.239746,228.491653 547.776917,231.595612 549.958069,235.999985 
	C552.697754,229.465012 554.960144,224.068680 557.222473,218.672348 
	C556.615723,218.393753 556.009033,218.115158 555.402283,217.836563 
	C553.690613,221.158768 551.978943,224.480957 550.045715,228.233124 
	C548.906433,226.319321 548.012329,224.817368 547.049377,222.574905 
M310.525513,232.983505 
	C314.787231,236.002975 319.168243,235.947906 323.374237,233.075455 
	C324.184875,232.521851 324.168243,230.756927 324.353363,230.145218 
	C320.347900,230.882919 317.054321,231.840073 313.750122,231.878143 
	C312.795349,231.889145 311.810150,229.259415 309.978607,226.583435 
	C316.194214,226.583435 320.712067,226.583435 325.149445,226.583435 
	C325.579376,221.797012 322.984772,218.864441 319.814911,218.281952 
	C316.402496,217.654907 312.310425,216.696579 309.483154,221.571503 
	C307.003052,225.847824 308.286713,228.880508 310.525513,232.983505 
M414.854614,219.346939 
	C410.769531,216.901321 406.699921,217.348480 403.013763,219.966705 
	C400.993805,221.401443 400.900116,230.196259 402.735748,232.175415 
	C405.943939,235.634506 410.072296,235.938141 414.122498,234.258270 
	C415.627991,233.633850 416.513733,231.515274 417.682129,230.078079 
	C417.312347,229.805786 416.942596,229.533478 416.572815,229.261185 
	C410.420654,233.872711 405.538361,233.161285 404.286591,226.901306 
	C408.793335,226.901306 413.192383,226.901306 419.378754,226.901306 
	C417.599945,223.759247 416.515747,221.844116 414.854614,219.346939 
M502.531311,231.904877 
	C498.097992,233.499924 496.300140,232.391724 495.267853,226.901611 
	C499.770233,226.901611 504.172485,226.901611 508.338135,226.901611 
	C510.253448,221.856537 506.999908,218.985748 504.067139,218.380234 
	C500.748474,217.695023 496.497192,218.715622 493.457794,220.426758 
	C491.244232,221.672974 492.484528,230.958145 494.318695,232.758575 
	C497.381287,235.764893 503.187927,236.019104 507.045685,232.986176 
	C507.884766,232.326508 507.838043,230.540161 508.199310,229.272736 
	C507.776459,229.255157 507.353638,229.237579 506.930786,229.220016 
	C505.722076,230.099106 504.513336,230.978195 502.531311,231.904877 
M58.903641,220.293945 
	C58.358017,218.693115 57.812393,217.092270 57.266773,215.491440 
	C58.768730,215.639587 60.274857,215.755142 61.771229,215.946884 
	C62.838013,216.083572 63.891678,216.322723 64.951195,216.516144 
	C64.878334,215.778076 64.969536,214.465210 64.707359,214.390396 
	C61.935341,213.599167 59.127453,212.791199 56.278728,212.519287 
	C55.631470,212.457520 53.991982,214.627228 54.183453,215.450012 
	C54.794476,218.075775 55.632042,220.851990 57.173161,223.003479 
	C58.859348,225.357498 61.426525,227.080490 63.431919,228.915756 
	C59.217495,235.363449 56.428814,232.257401 53.580593,228.034180 
	C53.042412,229.826309 52.228271,231.538635 52.513515,231.747162 
	C54.595646,233.269379 56.896484,235.506821 59.132526,235.511551 
	C61.259506,235.516068 64.037834,233.506042 65.285378,231.576996 
	C66.065689,230.370422 64.941345,227.447311 63.946724,225.709290 
	C62.878571,223.842773 60.961788,222.461899 58.903641,220.293945 
M581.436279,228.015991 
	C581.313782,226.418823 581.734192,224.448563 580.949402,223.306442 
	C579.553711,221.275162 577.624084,218.641296 575.559998,218.274780 
	C572.740051,217.774063 569.012451,218.330353 566.706055,219.925598 
	C563.085510,222.429825 563.190857,226.719086 564.863159,230.610138 
	C566.466431,234.340424 569.831482,235.030350 573.504211,235.086548 
	C577.933960,235.154373 579.783875,232.247864 581.436279,228.015991 
M430.294403,224.363678 
	C432.311127,222.978271 434.327850,221.592880 436.344543,220.207458 
	C437.233978,222.356247 438.469879,224.435165 438.921082,226.672348 
	C439.432861,229.209824 439.241974,231.889008 439.356598,234.506592 
	C440.255005,234.471359 441.153442,234.436127 442.051849,234.400894 
	C441.749695,230.003647 442.390442,225.262802 440.940399,221.283875 
	C438.285736,213.999283 431.900299,220.393784 427.707764,218.453766 
	C427.707764,223.925827 427.707764,229.187653 427.707764,234.449478 
	C428.304291,234.463638 428.900787,234.477814 429.497314,234.491974 
	C429.689117,231.385025 429.880890,228.278091 430.294403,224.363678 
M217.084045,232.584366 
	C217.723083,234.430786 218.648697,235.400345 219.759537,232.997269 
	C220.210052,232.022705 219.962891,230.711075 219.977692,229.552094 
	C220.056503,223.378098 222.088394,219.534653 225.417526,220.199600 
	C230.728683,221.260391 230.016022,225.797012 230.033905,229.754288 
	C230.040375,231.186890 230.227875,232.618683 230.332779,234.050827 
	C231.004410,233.974182 231.676041,233.897537 232.347687,233.820892 
	C231.795334,229.237747 232.462067,223.983551 230.397461,220.232803 
	C227.490280,214.951340 221.718094,219.830658 217.034225,218.362534 
	C217.034225,223.132568 217.034225,227.438583 217.084045,232.584366 
M193.547195,223.819717 
	C192.555405,225.691406 191.563629,227.563110 190.462067,229.641968 
	C188.429367,225.559341 186.496353,221.676926 184.563324,217.794510 
	C184.011688,218.046387 183.460052,218.298264 182.908417,218.550140 
	C183.754913,221.050064 184.291565,223.715256 185.517258,226.012863 
	C187.585388,229.889587 190.267380,233.469879 187.029343,238.015518 
	C186.663010,238.529739 187.227203,239.706802 187.359909,240.576508 
	C188.212372,240.076141 189.526215,239.775360 189.842880,239.043228 
	C191.993927,234.070221 193.976364,229.022247 195.920609,223.962875 
	C196.593552,222.211716 197.006363,220.360168 197.475632,218.538406 
	C197.479645,218.522781 196.259537,218.100555 196.219849,218.178467 
	C195.391861,219.803345 194.651978,221.473145 193.547195,223.819717 
M341.489594,225.016174 
	C343.033447,222.972229 344.577332,220.928284 346.121185,218.884338 
	C345.880219,218.513702 345.639221,218.143066 345.398254,217.772430 
	C344.215637,218.289566 342.805756,218.559555 341.907379,219.385742 
	C340.758270,220.442520 340.021545,221.947617 338.836975,223.647018 
	C337.121399,220.990479 335.907440,219.110718 334.693481,217.230957 
	C334.060364,217.800980 333.427246,218.371017 332.794128,218.941055 
	C334.180176,221.523300 336.610687,224.089981 336.649445,226.692307 
	C336.685944,229.142563 334.201050,231.630386 332.825439,234.101700 
	C333.337189,234.425110 333.848938,234.748520 334.360718,235.071945 
	C335.975647,233.060623 337.590576,231.049301 338.768433,229.582321 
	C340.725525,231.655380 342.531860,233.568741 344.338165,235.482086 
	C344.859497,235.046219 345.380798,234.610367 345.902100,234.174515 
	C344.332764,231.344406 342.763428,228.514282 341.489594,225.016174 
M629.970825,218.097534 
	C628.495422,218.097534 627.020081,218.097534 625.662903,218.097534 
	C621.623535,225.281982 628.344055,226.956665 632.481506,230.802338 
	C629.219666,231.614120 626.735840,232.232254 624.252014,232.850403 
	C624.197876,233.291824 624.143677,233.733246 624.089539,234.174667 
	C626.375732,234.410416 628.734009,235.075821 630.919006,234.708786 
	C632.090393,234.512024 633.951843,232.342316 633.765686,231.409119 
	C633.376831,229.458832 631.921936,227.680389 630.743958,225.940323 
	C629.682922,224.373093 628.407043,222.951340 627.225891,221.465408 
	C629.043213,221.500854 630.860840,221.560593 632.677673,221.544373 
	C632.936401,221.542068 633.191772,221.171082 634.038696,220.510651 
	C632.841980,219.630005 631.795349,218.859756 629.970825,218.097534 
M175.635361,211.330963 
	C172.652527,211.315979 168.067383,216.807632 168.544846,219.669189 
	C169.120743,223.120514 169.521606,226.600769 170.025436,230.064545 
	C170.244171,231.568497 170.530762,233.062576 170.909943,235.284134 
	C175.777466,230.131104 169.310898,222.673233 176.027252,219.095932 
	C173.655350,217.298843 170.076309,215.592255 175.779999,213.457947 
	C176.061539,213.352585 176.029205,212.408493 175.635361,211.330963 
M522.032532,234.201187 
	C522.351562,230.985535 522.476868,227.734268 523.059448,224.567093 
	C523.431580,222.543869 524.480042,220.645065 525.177856,218.814941 
	C523.927795,216.723145 522.515320,214.359558 521.097778,211.987473 
	C519.865906,214.883728 518.875549,217.212158 518.292175,218.583725 
	C518.992737,220.773926 519.705139,222.329895 519.967224,223.958328 
	C520.536560,227.494644 520.875916,231.067993 522.032532,234.201187 
M355.475525,217.640457 
	C354.758911,217.960144 354.042328,218.279816 353.211060,218.650650 
	C358.856659,223.124222 354.175201,229.602188 358.041626,234.782959 
	C358.714722,229.508514 359.387817,224.234070 360.170807,218.098541 
	C359.594635,216.784393 358.542267,214.384232 357.489899,211.984055 
	C357.133087,212.077576 356.776245,212.171097 356.419434,212.264618 
	C356.225037,213.825684 356.030670,215.386749 355.475525,217.640457 
M589.100708,219.964569 
	C589.442749,224.748215 587.930176,229.747650 591.058838,234.300613 
	C592.005676,231.284668 591.390625,228.116150 592.184570,225.352432 
	C592.927246,222.767242 595.163818,220.611221 597.248169,217.515976 
	C594.223022,218.114410 591.751831,218.603241 589.100708,219.964569 
M73.895889,225.568054 
	C73.895889,228.664017 73.895889,231.759979 73.895889,234.855942 
	C75.553238,234.691116 76.586670,234.042496 76.689987,233.269547 
	C77.757553,225.282928 76.764565,219.495819 73.896873,218.050125 
	C73.896873,220.365173 73.896873,222.488297 73.895889,225.568054 
M147.858505,232.120636 
	C147.858505,225.892242 147.858505,219.663849 147.858505,213.435455 
	C147.711365,213.441788 147.564224,213.448105 147.417084,213.454437 
	C147.417084,219.846802 147.417084,226.239182 147.858505,232.120636 
z"/>
<path fill="#B51F4D" opacity="1.000000" stroke="none" 
	d="
M696.073669,174.100708 
	C696.044250,173.935226 696.014832,173.769760 696.239502,173.268738 
	C696.984863,172.612152 697.476135,172.291122 698.244995,171.788422 
	C700.407043,169.097153 702.291626,166.587585 704.388550,163.838852 
	C705.768799,161.801453 706.936646,160.003220 708.373169,157.999786 
	C710.472900,155.547516 712.304016,153.300446 714.398193,150.853577 
	C716.192932,148.149612 717.724609,145.645447 719.576538,143.051727 
	C721.891418,140.628372 723.885864,138.294586 726.138733,135.745636 
	C729.218506,131.681046 732.039917,127.831604 735.062378,123.714561 
	C736.882202,121.345192 738.500793,119.243439 740.118286,117.099541 
	C740.117249,117.057396 740.033020,117.058868 740.269531,116.958458 
	C740.692505,116.576210 740.879089,116.294365 741.035339,116.012619 
	C741.005066,116.012718 741.038086,116.063492 741.274963,115.863525 
	C741.829224,115.130150 742.146545,114.596741 742.705872,113.868492 
	C744.088806,112.163597 745.229736,110.653542 746.529114,109.037430 
	C746.884155,108.756828 747.022766,108.544426 747.339294,108.073021 
	C747.751465,107.246674 747.927673,106.641479 748.077698,106.017838 
	C748.051514,105.999405 748.030762,106.059959 748.319946,105.999207 
	C748.875183,105.649727 749.141174,105.360992 749.662964,104.881233 
	C752.005066,101.833191 754.091492,98.976181 756.144775,96.078583 
	C756.111694,96.038002 756.030762,96.104553 756.272339,96.003494 
	C756.704834,95.616127 756.895752,95.329811 757.368164,94.867233 
	C760.091919,91.099831 762.534058,87.508705 764.976257,83.917587 
	C764.976257,83.917587 765.037109,84.011711 765.098022,83.851898 
	C765.428406,83.574165 765.660339,83.404770 765.854614,83.183899 
	C766.058289,83.114433 766.261902,83.044975 767.044312,83.119507 
	C802.438354,83.228775 836.556763,78.198593 870.194824,69.340179 
	C870.300110,70.471947 870.299438,71.230423 870.298767,71.988899 
	C859.548950,80.492256 848.810852,89.010460 838.046143,97.495033 
	C825.851013,107.106995 813.571411,116.612885 801.442932,126.308006 
	C791.851807,133.974838 782.474731,141.908783 772.926086,149.629517 
	C764.804871,156.196091 756.554321,162.602478 748.397766,169.125763 
	C739.907715,175.915817 731.484131,182.789047 722.986755,189.569870 
	C718.957336,192.785309 714.823853,195.870285 710.061279,198.983459 
	C707.867859,196.618790 706.146973,194.390350 704.873901,191.930191 
	C701.828308,186.045059 698.993530,180.050873 696.073669,174.100708 
z"/>
<path fill="#700234" opacity="1.000000" stroke="none" 
	d="
M870.088928,68.966881 
	C836.556763,78.198593 802.438354,83.228775 767.353210,83.025970 
	C774.997192,70.063683 785.590576,59.559608 796.081726,49.123241 
	C804.721130,40.528908 815.221313,34.277264 826.637634,29.582375 
	C836.798767,25.403671 847.260010,21.776276 858.099854,21.539124 
	C869.806030,21.283020 881.634644,21.931061 893.187561,25.303493 
	C899.613037,27.179171 906.571350,27.229452 913.881226,28.266315 
	C914.979675,28.300159 915.486572,28.170097 915.993408,28.040035 
	C915.993408,28.040037 915.990295,27.990221 916.247192,28.001099 
	C916.504028,28.011978 916.973083,28.012444 916.973083,28.012444 
	C917.144043,28.014088 917.314941,28.015732 917.997131,28.004757 
	C918.678406,27.990257 918.848450,27.988377 919.018494,27.986498 
	C919.018494,27.986498 918.997559,27.999304 918.959229,28.338802 
	C916.946289,31.437944 914.971680,34.197590 912.997009,36.957222 
	C912.997009,36.957218 913.009216,37.009388 912.621216,37.032494 
	C907.499268,41.036366 902.765320,45.017132 898.031372,48.997917 
	C898.031372,48.997929 898.035950,49.030018 897.642944,49.029907 
	C896.014282,49.399506 894.562744,49.472881 893.579224,50.188976 
	C888.691467,53.747932 883.748901,57.271767 879.197937,61.235447 
	C877.083984,63.076660 875.815369,65.888535 874.163574,68.260376 
	C874.036377,68.522514 873.858459,68.743950 873.049805,68.993225 
	C871.676086,69.030144 870.882507,68.998512 870.088928,68.966881 
z"/>
<path fill="#5C5D5E" opacity="1.000000" stroke="none" 
	d="
M272.998932,167.021606 
	C271.701813,173.401031 270.892700,179.932007 268.972015,186.117813 
	C267.001831,192.463013 261.642242,196.348572 255.737274,198.571594 
	C241.751389,203.836792 227.887405,203.466263 214.606857,195.929199 
	C208.589752,192.514359 205.512070,186.944107 202.911926,180.385376 
	C208.263626,179.831665 212.522324,179.105927 216.264374,184.284317 
	C222.811737,193.344803 232.849030,194.274734 242.820602,192.362640 
	C248.087219,191.352753 253.856781,189.170685 257.695740,185.656754 
	C261.040009,182.595627 262.282623,177.020798 263.874512,172.358871 
	C264.620667,170.173798 264.002258,167.522766 264.002258,163.817551 
	C254.367767,173.737946 243.215729,176.200958 231.226959,174.983734 
	C221.764633,174.023041 214.407974,168.714783 208.083511,161.807312 
	C200.558640,153.588715 199.672974,129.524231 207.330597,120.255058 
	C214.186813,111.955971 222.248611,105.763496 234.205444,105.717239 
	C245.551361,105.673340 255.617401,107.420601 262.895416,117.571648 
	C263.261627,117.232246 263.627869,116.892853 263.994080,116.553459 
	C263.994080,113.629883 263.994080,110.706314 264.500305,107.368195 
	C267.584045,106.953644 270.161560,106.953644 272.998932,106.953644 
	C272.998932,127.482666 272.998932,147.252136 272.998932,167.021606 
M213.929932,152.368912 
	C219.743347,164.123993 232.043640,169.283524 245.490250,165.234238 
	C263.407898,159.838547 266.931152,147.288147 263.055786,133.130096 
	C258.021118,114.736877 236.139267,107.027077 219.651825,122.020317 
	C210.427994,130.408203 210.665344,140.809189 213.929932,152.368912 
z"/>
<path fill="#5B5C5E" opacity="1.000000" stroke="none" 
	d="
M486.224548,170.813446 
	C469.051544,157.577744 466.730591,134.454926 479.980194,116.795387 
	C489.636078,103.925713 515.297546,97.895325 533.694458,117.637093 
	C533.913513,113.921577 534.099792,110.762566 534.301819,107.335892 
	C537.120239,107.335892 539.686523,107.335892 542.631409,107.335892 
	C542.631409,129.727768 542.631409,151.934341 542.631409,174.557800 
	C540.009766,174.557800 537.448242,174.557800 534.279968,174.557800 
	C534.135437,171.795471 533.984985,168.919159 533.799438,165.372253 
	C519.063232,178.808151 503.397919,180.774460 486.224548,170.813446 
M531.507568,129.188080 
	C528.374634,125.697357 525.757507,121.461609 522.006165,118.864037 
	C512.938721,112.585442 503.091705,112.215012 493.750854,118.362213 
	C485.509186,123.786011 480.931396,131.926712 481.227722,141.768707 
	C481.669647,156.445953 494.020508,172.095596 512.328674,167.631104 
	C518.255615,166.185822 524.865051,162.833038 528.631104,158.265656 
	C535.353394,150.113083 536.084839,139.966736 531.507568,129.188080 
z"/>
<path fill="#5B5C5E" opacity="1.000000" stroke="none" 
	d="
M119.007423,142.105011 
	C120.070343,155.578003 125.848862,164.490738 139.993423,168.489670 
	C149.018524,171.041229 162.546722,163.896866 170.357117,152.297668 
	C179.427155,155.882324 179.494598,159.378510 171.260803,167.239044 
	C161.674805,176.390472 150.215057,178.341003 137.801773,176.324203 
	C121.076126,173.606750 110.615868,160.053513 109.795868,143.250977 
	C109.148155,129.978607 114.546173,119.972740 123.358978,111.336388 
	C126.101944,108.648346 130.408875,106.395660 134.152542,106.134766 
	C141.579224,105.617188 149.554443,105.178635 156.507095,107.307091 
	C170.097336,111.467529 178.265167,121.359451 180.047913,135.897705 
	C180.226898,137.357346 180.627899,138.789764 180.430939,140.632782 
	C161.697830,141.026367 143.459503,140.987259 125.221695,141.065506 
	C123.148827,141.074402 121.078781,141.742538 119.007423,142.105011 
M122.520050,133.925644 
	C138.147629,133.925644 153.775223,133.925644 169.458939,133.925644 
	C167.547379,121.797455 158.065277,115.814178 147.942215,114.179657 
	C138.530991,112.660072 127.471024,117.626991 122.702080,127.860016 
	C121.878036,129.628220 122.041519,131.856659 122.520050,133.925644 
z"/>
<path fill="#5B5C5E" opacity="1.000000" stroke="none" 
	d="
M368.094360,174.851822 
	C365.637207,174.851822 363.180054,174.851822 360.312347,174.851822 
	C360.131836,171.916855 359.972290,169.322784 359.788239,166.330002 
	C338.489014,181.249908 317.632477,183.762039 302.609589,159.545151 
	C291.161835,141.091354 296.810608,124.548080 310.488342,112.444138 
	C321.188965,102.974739 342.727905,100.722092 359.446442,117.017151 
	C359.747223,113.717346 360.020203,110.722580 360.353760,107.063652 
	C362.675934,107.063652 364.944824,107.063652 367.637787,107.575577 
	C368.072693,130.342270 368.083527,152.597046 368.094360,174.851822 
M335.220306,113.993111 
	C323.806152,113.970650 314.896271,119.059433 309.857605,128.958252 
	C303.882904,140.695892 306.697510,153.183792 316.414703,162.002350 
	C325.023285,169.814804 334.654663,169.913406 344.727417,165.609070 
	C357.678711,160.074646 362.489166,146.382111 358.893677,133.933914 
	C355.602295,122.538727 347.264801,116.559914 335.220306,113.993111 
z"/>
<path fill="#5D5E5F" opacity="1.000000" stroke="none" 
	d="
M432.337219,159.415771 
	C426.405914,173.084045 420.619110,186.395996 414.865692,199.631134 
	C411.835876,199.631134 408.920410,199.631134 405.184937,199.631134 
	C405.836700,197.498123 406.206909,195.834503 406.845001,194.280884 
	C408.958008,189.135986 410.384247,183.479385 413.514008,179.032623 
	C418.938110,171.326050 415.758942,164.985214 412.433685,157.975708 
	C406.222015,144.881577 400.472626,131.568268 394.518311,118.351822 
	C392.925201,114.815643 391.286652,111.299934 389.435577,107.266388 
	C393.214691,107.266388 396.155975,107.266388 399.575073,107.266388 
	C407.021179,123.804169 414.616791,140.673965 422.541382,158.274445 
	C426.519409,149.372147 430.243011,141.117218 433.899323,132.832611 
	C436.880676,126.077255 439.710724,119.254547 442.738678,112.520508 
	C445.558624,106.249008 445.781097,106.220665 455.163635,107.609001 
	C447.553528,124.871338 440.017609,141.965378 432.337219,159.415771 
z"/>
<path fill="#5A5B5D" opacity="1.000000" stroke="none" 
	d="
M622.147034,140.094498 
	C621.729126,136.018814 621.627380,131.880737 620.837463,127.878479 
	C617.750488,112.236603 601.230835,110.300201 590.707886,118.939911 
	C583.629211,124.751801 580.817749,132.343826 580.627991,142.011566 
	C580.242188,153.465240 580.177673,164.171753 580.113159,174.878265 
	C577.686035,174.904724 575.258911,174.931183 572.422241,174.463593 
	C571.982727,151.684708 571.952637,129.399887 571.922607,107.115074 
	C574.717285,107.115074 577.512024,107.115074 580.669983,107.115074 
	C580.858154,109.855362 581.025085,112.287117 581.277161,115.957611 
	C594.095459,103.646332 608.147461,101.169701 622.380615,111.050011 
	C629.427673,115.941940 631.231018,124.519806 630.988403,134.007568 
	C631.002808,148.239929 631.062134,161.564453 631.121399,174.888977 
	C628.694092,174.907776 626.266724,174.926575 623.398132,174.439117 
	C622.967651,168.101761 623.091797,162.268021 622.956360,156.440323 
	C622.829651,150.988403 622.427795,145.542847 622.147034,140.094498 
z"/>
<path fill="#6F0837" opacity="1.000000" stroke="none" 
	d="
M695.974731,174.428574 
	C698.993530,180.050873 701.828308,186.045059 704.873901,191.930191 
	C706.146973,194.390350 707.867859,196.618790 709.714844,199.074448 
	C704.115906,204.107971 698.234680,209.078232 692.248352,213.918610 
	C681.279724,222.787659 670.245300,231.575348 659.245911,240.406418 
	C653.901611,244.697205 648.673218,249.142609 643.171021,253.219360 
	C641.771118,254.256592 639.526489,254.153732 637.669983,254.574722 
	C637.351074,254.209442 637.032166,253.844162 636.713196,253.478882 
	C640.242065,248.709198 643.778625,243.945160 647.298340,239.168793 
	C658.224060,224.342209 669.069092,209.455338 680.098328,194.706284 
	C685.173828,187.918976 690.605591,181.398117 695.974731,174.428574 
z"/>
<path fill="#5D5E60" opacity="1.000000" stroke="none" 
	d="
M36.817822,130.188187 
	C33.353794,122.602867 29.924437,115.399223 26.430902,108.060776 
	C34.724159,105.834000 35.572853,106.300766 38.585846,112.779373 
	C45.046265,126.670715 51.623554,140.507706 58.460052,155.018723 
	C60.480881,151.272430 62.460293,148.002045 64.062897,144.556396 
	C68.691528,134.604660 73.270058,124.626877 77.672981,114.573792 
	C81.255531,106.393829 81.581169,106.090851 91.093040,107.648216 
	C87.813698,114.952530 84.648903,122.141907 81.368675,129.278229 
	C74.903091,143.344513 68.421356,157.404037 61.797451,171.395889 
	C61.123432,172.819641 59.435349,173.763321 58.217850,174.929794 
	C57.423683,173.638016 56.512455,172.402985 55.854473,171.045212 
	C51.780125,162.637604 47.723904,154.220688 43.741013,145.769455 
	C41.369904,140.738235 39.143791,135.638702 36.817822,130.188187 
z"/>
<path fill="#EC326D" opacity="1.000000" stroke="none" 
	d="
M704.176208,164.078003 
	C702.291626,166.587585 700.407043,169.097153 698.055786,171.499130 
	C696.359192,167.335709 695.321045,163.208893 693.852417,159.241379 
	C691.851868,153.836777 689.287170,148.636200 687.385071,143.200897 
	C683.737427,132.777969 680.549194,122.193771 676.873413,111.781319 
	C671.292175,95.971184 665.523315,80.226006 659.669861,64.514435 
	C658.624634,61.708725 659.365356,60.864571 662.047913,60.898819 
	C664.269104,62.035618 666.490234,63.172421 668.861084,65.006577 
	C669.012085,66.465706 669.013367,67.227478 669.010498,68.419235 
	C670.778992,75.360695 672.148621,82.014938 674.395935,88.358269 
	C682.818420,112.132439 691.482483,135.821732 700.220398,159.482117 
	C700.876526,161.258728 702.827332,162.557220 704.176208,164.078003 
z"/>
<path fill="#EA296E" opacity="1.000000" stroke="none" 
	d="
M661.890930,60.594055 
	C659.365356,60.864571 658.624634,61.708725 659.669861,64.514435 
	C665.523315,80.226006 671.292175,95.971184 676.873413,111.781319 
	C680.549194,122.193771 683.737427,132.777969 687.385071,143.200897 
	C689.287170,148.636200 691.851868,153.836777 693.852417,159.241379 
	C695.321045,163.208893 696.359192,167.335709 697.778320,171.680817 
	C697.476135,172.291122 696.984863,172.612152 696.209839,173.018387 
	C692.919128,166.960953 689.843689,160.850525 686.926636,154.665436 
	C684.598022,149.728104 682.462524,144.699738 680.081238,138.996674 
	C678.249084,130.764465 676.049011,123.507362 670.004272,118.143547 
	C670.004272,118.143547 669.864685,118.133987 669.911865,117.722336 
	C669.598145,115.442535 669.309143,113.556885 668.859070,111.710487 
	C668.238342,109.164314 667.490356,106.649307 666.807068,104.118202 
	C665.539124,99.421494 664.531982,94.636261 662.963318,90.042580 
	C659.495117,79.886490 655.659546,69.855598 652.215881,59.691628 
	C651.763062,58.355171 652.728821,56.538063 653.037598,54.943565 
	C655.936401,56.725475 658.835144,58.507385 661.890930,60.594055 
z"/>
<path fill="#EE476B" opacity="1.000000" stroke="none" 
	d="
M669.014648,67.989258 
	C669.013367,67.227478 669.012085,66.465706 669.019897,65.323318 
	C673.911438,67.048363 678.793701,69.154022 683.851440,71.990082 
	C685.239075,76.642212 686.321167,80.609856 687.685364,84.478020 
	C695.012268,105.254364 702.349792,126.027626 709.890747,146.726532 
	C710.520447,148.454834 712.684204,149.624283 714.135193,151.053375 
	C712.304016,153.300446 710.472900,155.547516 708.179382,157.677048 
	C705.836792,153.145782 703.754333,148.805923 702.110291,144.305893 
	C693.683777,121.240433 685.309448,98.155350 677.074463,75.021027 
	C675.631165,70.966400 673.253845,68.556473 669.014648,67.989258 
z"/>
<path fill="#F15E66" opacity="1.000000" stroke="none" 
	d="
M725.880371,135.960785 
	C723.885864,138.294586 721.891418,140.628372 719.223022,142.938004 
	C716.587280,139.768143 714.080383,136.833878 712.763062,133.438141 
	C708.324768,121.997139 704.153076,110.445412 700.186951,98.831009 
	C697.523865,91.032249 695.380981,83.055817 693.005310,75.158875 
	C694.460815,75.393326 695.916260,75.627777 697.995667,76.178070 
	C699.437744,76.633034 700.255920,76.772148 701.074097,76.911263 
	C701.074097,76.911263 701.542480,77.021729 701.782593,77.484413 
	C702.069519,78.442657 702.008972,78.978737 702.178589,79.427948 
	C708.910034,97.260605 715.621033,115.101349 722.498840,132.877518 
	C722.991455,134.150787 724.724243,134.944244 725.880371,135.960785 
z"/>
<path fill="#F05169" opacity="1.000000" stroke="none" 
	d="
M692.638916,75.082672 
	C695.380981,83.055817 697.523865,91.032249 700.186951,98.831009 
	C704.153076,110.445412 708.324768,121.997139 712.763062,133.438141 
	C714.080383,136.833878 716.587280,139.768143 718.902649,143.027557 
	C717.724609,145.645447 716.192932,148.149612 714.398193,150.853577 
	C712.684204,149.624283 710.520447,148.454834 709.890747,146.726532 
	C702.349792,126.027626 695.012268,105.254364 687.685364,84.478020 
	C686.321167,80.609856 685.239075,76.642212 684.030701,72.308601 
	C686.780579,72.933304 689.526611,73.969894 692.638916,75.082672 
z"/>
<path fill="#F26B63" opacity="1.000000" stroke="none" 
	d="
M726.138733,135.745636 
	C724.724243,134.944244 722.991455,134.150787 722.498840,132.877518 
	C715.621033,115.101349 708.910034,97.260605 702.178589,79.427948 
	C702.008972,78.978737 702.069519,78.442657 702.008362,77.567642 
	C705.772827,78.069489 709.551514,78.950798 713.696350,80.201340 
	C714.062439,80.570580 714.070251,80.959885 714.054688,81.375519 
	C715.207092,85.890167 716.167969,90.062408 717.586121,94.072960 
	C720.554932,102.468681 724.195374,110.650513 726.739990,119.165222 
	C728.795837,126.044281 728.262817,126.203583 734.861267,123.982162 
	C732.039917,127.831604 729.218506,131.681046 726.138733,135.745636 
z"/>
<path fill="#E4216E" opacity="1.000000" stroke="none" 
	d="
M652.900330,54.628613 
	C652.728821,56.538063 651.763062,58.355171 652.215881,59.691628 
	C655.659546,69.855598 659.495117,79.886490 662.963318,90.042580 
	C664.531982,94.636261 665.539124,99.421494 666.807068,104.118202 
	C667.490356,106.649307 668.238342,109.164314 668.859070,111.710487 
	C669.309143,113.556885 669.598145,115.442535 669.915100,117.652466 
	C666.610535,110.810905 663.486145,103.561859 660.061340,96.457611 
	C652.498291,80.769440 644.716125,65.186737 637.189087,49.481602 
	C635.686951,46.347458 634.923584,42.859219 634.709900,38.977112 
	C640.727600,44.089294 646.745361,49.201477 652.900330,54.628613 
z"/>
<path fill="#F58457" opacity="1.000000" stroke="none" 
	d="
M714.070251,80.959885 
	C714.070251,80.959885 714.062439,80.570580 714.057312,80.375977 
	C719.813965,80.793549 725.570312,81.463982 731.339233,81.999359 
	C735.910095,82.423561 740.496277,82.682159 745.247375,83.252594 
	C744.613525,83.677063 743.808044,83.863243 742.550293,84.031769 
	C739.055603,84.014114 736.013123,84.014114 732.970581,84.014114 
	C732.908630,84.484444 732.846619,84.954781 732.784607,85.425110 
	C733.882324,86.262917 734.980103,87.100723 736.077881,87.938530 
	C736.033325,90.573448 736.699585,92.921043 737.586975,95.181786 
	C738.488220,97.477493 740.696533,99.834930 740.416138,101.905899 
	C739.727356,106.993820 742.223022,108.519875 746.370728,109.143501 
	C745.229736,110.653542 744.088806,112.163597 742.444824,114.054420 
	C741.640564,114.977951 741.339294,115.520714 741.038086,116.063484 
	C741.038086,116.063492 741.005066,116.012718 740.842773,116.166466 
	C740.437866,116.542961 740.222046,116.789177 740.033020,117.058868 
	C740.033020,117.058868 740.117249,117.057396 739.736084,117.050827 
	C737.855835,115.928001 735.596008,115.125305 734.984924,113.642960 
	C731.766174,105.835091 728.371338,98.011551 726.230835,89.879379 
	C724.872375,84.718391 723.523132,81.171661 717.497986,81.551567 
	C716.372314,81.622551 715.213684,81.170540 714.070251,80.959885 
z"/>
<path fill="#F79F3F" opacity="1.000000" stroke="none" 
	d="
M743.002502,84.049416 
	C743.808044,83.863243 744.613525,83.677063 745.682373,83.326569 
	C751.982361,83.433136 758.019104,83.704018 764.515991,83.946243 
	C762.534058,87.508705 760.091919,91.099831 757.166016,95.015984 
	C756.465088,95.595528 756.247925,95.850044 756.030762,96.104553 
	C756.030762,96.104553 756.111694,96.038002 755.798218,96.131584 
	C749.767822,99.686523 746.169556,97.877045 745.002502,91.134674 
	C744.586243,88.729584 743.683289,86.408722 743.002502,84.049416 
z"/>
<path fill="#636363" opacity="1.000000" stroke="none" 
	d="
M369.679138,220.783997 
	C370.673065,215.590591 373.405304,212.580231 378.340027,212.088257 
	C383.310852,211.592697 388.162170,211.864182 391.508514,216.308044 
	C391.316895,216.822174 391.125275,217.336304 390.933655,217.850418 
	C389.332550,217.147720 387.641083,216.597748 386.147034,215.714050 
	C381.438873,212.929230 376.152863,214.862183 372.848938,220.053970 
	C370.847900,223.198425 373.511505,230.292999 376.478333,231.727905 
	C381.621887,234.215576 387.784363,232.361877 389.838745,227.570358 
	C389.946716,227.318497 389.741089,226.932144 389.639130,226.378555 
	C387.622375,226.143326 385.541077,225.900574 383.459808,225.657822 
	C383.441772,225.248352 383.423767,224.838882 383.405762,224.429413 
	C386.412628,224.277802 389.419495,224.126190 392.474731,223.972137 
	C394.152710,228.677048 391.521606,231.602921 388.733032,233.674789 
	C384.126678,237.097229 378.780975,236.017822 374.245422,233.492935 
	C369.642303,230.930435 368.459808,226.272675 369.679138,220.783997 
z"/>
<path fill="#636363" opacity="1.000000" stroke="none" 
	d="
M257.952515,230.761215 
	C257.896912,235.044601 257.900909,239.078644 253.522156,240.669403 
	C248.971954,242.322464 243.509537,240.333481 240.184433,235.122803 
	C246.598419,238.774872 251.988419,240.596420 255.658035,234.553482 
	C251.684738,234.169556 247.474854,234.508392 243.830734,233.231995 
	C238.657440,231.419998 241.002258,226.292801 241.396912,222.876465 
	C241.635193,220.813660 243.639679,217.376099 247.587570,218.011230 
	C250.778229,218.524536 254.020157,218.719269 257.948364,219.129349 
	C257.948364,222.796722 257.948364,226.549561 257.952515,230.761215 
M245.112122,231.296692 
	C248.542252,233.064636 253.070419,232.103058 254.951477,229.250809 
	C256.955841,226.211624 255.321640,223.859131 253.297424,221.890671 
	C251.021545,219.677505 248.567596,219.544662 245.851822,221.760635 
	C242.466782,224.522690 241.979279,227.272400 245.112122,231.296692 
z"/>
<path fill="#5D5E60" opacity="1.000000" stroke="none" 
	d="
M98.023430,228.172485 
	C97.754860,226.648376 97.746490,225.376068 97.164963,224.472763 
	C96.189285,222.957153 94.848640,221.676483 93.661568,220.296951 
	C92.099655,222.161179 89.813263,223.805084 89.162071,225.946289 
	C88.375816,228.531662 88.975830,231.538635 88.975830,234.363113 
	C88.265198,234.382553 87.554573,234.401993 86.843941,234.421432 
	C86.843941,229.248505 86.843941,224.075562 86.843941,218.221451 
	C90.810768,218.501404 95.199745,218.811157 99.584274,219.120605 
	C102.381683,218.771225 105.639275,217.529587 108.230064,218.362366 
	C109.719788,218.841217 110.568947,222.616760 110.915771,225.022324 
	C111.364784,228.136612 111.025307,231.364609 111.025307,234.543640 
	C110.359192,234.556320 109.693069,234.569000 109.026955,234.581665 
	C109.026955,231.940659 109.580681,229.137405 108.868118,226.705154 
	C108.182907,224.366287 106.187172,222.411377 104.767281,220.287750 
	C103.175438,222.332458 100.984337,224.164886 100.163338,226.482620 
	C99.370903,228.719727 99.991753,231.457474 99.991753,233.975281 
	C99.336494,233.988297 98.681229,234.001312 98.025970,234.014313 
	C98.025970,232.206268 98.025970,230.398209 98.023430,228.172485 
z"/>
<path fill="#636363" opacity="1.000000" stroke="none" 
	d="
M482.945984,224.878418 
	C482.946411,227.924103 482.946411,230.501953 482.946411,233.079803 
	C482.415985,233.325745 481.885559,233.571686 481.355133,233.817627 
	C477.113800,229.292007 472.872467,224.766388 467.450653,218.981140 
	C467.450653,225.087570 467.450653,229.801529 467.450653,234.515488 
	C466.883911,234.491180 466.317200,234.466873 465.750458,234.442566 
	C465.750458,227.478546 465.750458,220.514511 465.750458,212.242401 
	C470.580414,217.535858 475.028473,222.410797 480.559448,228.472549 
	C480.865234,222.836609 481.116852,218.198761 481.368500,213.560913 
	C481.894196,213.562347 482.419891,213.563766 482.945587,213.565201 
	C482.945587,217.180328 482.945587,220.795471 482.945984,224.878418 
z"/>
<path fill="#5D5E60" opacity="1.000000" stroke="none" 
	d="
M286.659454,218.191681 
	C289.775482,221.529800 292.628143,224.608002 296.519714,228.807266 
	C296.876678,222.767609 297.153961,218.076233 297.431244,213.384842 
	C297.824371,213.417114 298.217468,213.449371 298.610596,213.481644 
	C298.610596,220.367935 298.610596,227.254242 298.610596,235.217285 
	C293.625214,229.804916 289.229034,225.032242 284.832886,220.259567 
	C284.429413,220.299759 284.025909,220.339935 283.622437,220.380112 
	C283.622437,225.075821 283.622437,229.771545 283.622437,234.467255 
	C282.936310,234.451004 282.250214,234.434753 281.564087,234.418503 
	C280.569427,227.688110 280.958221,220.917511 281.411133,214.145050 
	C281.827576,213.951202 282.244049,213.757339 282.660522,213.563492 
	C283.905701,215.019577 285.150879,216.475662 286.659454,218.191681 
z"/>
<path fill="#6C6C6C" opacity="1.000000" stroke="none" 
	d="
M547.083801,222.945160 
	C548.012329,224.817368 548.906433,226.319321 550.045715,228.233124 
	C551.978943,224.480957 553.690613,221.158768 555.402283,217.836563 
	C556.009033,218.115158 556.615723,218.393753 557.222473,218.672348 
	C554.960144,224.068680 552.697754,229.465012 549.958069,235.999985 
	C547.776917,231.595612 546.239746,228.491653 544.243652,224.460983 
	C542.464050,228.432663 540.978577,231.747940 538.867676,236.459106 
	C536.242126,229.809692 534.070007,224.308578 531.897888,218.807480 
	C532.438965,218.532120 532.979980,218.256775 533.521057,217.981430 
	C535.268433,221.258347 537.015747,224.535263 539.127686,228.495865 
	C540.974121,224.704178 542.531189,221.506790 544.208496,218.062500 
	C545.089661,219.462128 546.069519,221.018509 547.083801,222.945160 
z"/>
<path fill="#666666" opacity="1.000000" stroke="none" 
	d="
M310.237427,232.699951 
	C308.286713,228.880508 307.003052,225.847824 309.483154,221.571503 
	C312.310425,216.696579 316.402496,217.654907 319.814911,218.281952 
	C322.984772,218.864441 325.579376,221.797012 325.149445,226.583435 
	C320.712067,226.583435 316.194214,226.583435 309.978607,226.583435 
	C311.810150,229.259415 312.795349,231.889145 313.750122,231.878143 
	C317.054321,231.840073 320.347900,230.882919 324.353363,230.145218 
	C324.168243,230.756927 324.184875,232.521851 323.374237,233.075455 
	C319.168243,235.947906 314.787231,236.002975 310.237427,232.699951 
M315.089600,220.642807 
	C313.948120,221.637894 312.806641,222.632996 311.665161,223.628098 
	C311.891663,223.961456 312.118134,224.294815 312.344635,224.628174 
	C315.441101,224.628174 318.537598,224.628174 321.634064,224.628174 
	C321.793213,224.125870 321.952362,223.623566 322.111511,223.121262 
	C319.973633,222.136505 317.835785,221.151749 315.089600,220.642807 
z"/>
<path fill="#636363" opacity="1.000000" stroke="none" 
	d="
M415.143066,219.637970 
	C416.515747,221.844116 417.599945,223.759247 419.378754,226.901306 
	C413.192383,226.901306 408.793335,226.901306 404.286591,226.901306 
	C405.538361,233.161285 410.420654,233.872711 416.572815,229.261185 
	C416.942596,229.533478 417.312347,229.805786 417.682129,230.078079 
	C416.513733,231.515274 415.627991,233.633850 414.122498,234.258270 
	C410.072296,235.938141 405.943939,235.634506 402.735748,232.175415 
	C400.900116,230.196259 400.993805,221.401443 403.013763,219.966705 
	C406.699921,217.348480 410.769531,216.901321 415.143066,219.637970 
M412.988983,224.052643 
	C413.721344,223.948410 414.453735,223.844193 415.458130,223.701248 
	C409.493103,218.628601 406.365509,218.998047 404.415497,225.268784 
	C407.198975,224.841461 409.710968,224.455826 412.988983,224.052643 
z"/>
<path fill="#666666" opacity="1.000000" stroke="none" 
	d="
M502.917969,231.881073 
	C504.513336,230.978195 505.722076,230.099106 506.930786,229.220016 
	C507.353638,229.237579 507.776459,229.255157 508.199310,229.272736 
	C507.838043,230.540161 507.884766,232.326508 507.045685,232.986176 
	C503.187927,236.019104 497.381287,235.764893 494.318695,232.758575 
	C492.484528,230.958145 491.244232,221.672974 493.457794,220.426758 
	C496.497192,218.715622 500.748474,217.695023 504.067139,218.380234 
	C506.999908,218.985748 510.253448,221.856537 508.338135,226.901611 
	C504.172485,226.901611 499.770233,226.901611 495.267853,226.901611 
	C496.300140,232.391724 498.097992,233.499924 502.917969,231.881073 
M504.827026,222.478760 
	C500.141083,218.994705 498.023712,219.420380 494.540588,226.079239 
	C498.909637,224.857025 502.071594,223.972488 504.827026,222.478760 
z"/>
<path fill="#666666" opacity="1.000000" stroke="none" 
	d="
M120.900589,218.122360 
	C123.864700,218.101624 126.830414,218.009567 129.792542,218.076538 
	C134.504852,218.183060 138.568680,222.855316 138.080978,227.495361 
	C137.354462,234.407150 132.420883,236.545532 122.915413,233.463730 
	C122.915413,235.532028 122.915413,237.388626 122.493484,239.577271 
	C121.696472,238.431488 121.033279,236.960648 120.997238,235.474579 
	C120.857018,229.693130 120.915833,223.906845 120.900589,218.122360 
M122.938072,226.634308 
	C124.418983,228.753296 125.751358,232.456512 127.416290,232.612610 
	C129.795883,232.835709 132.885040,230.945724 134.819107,229.076523 
	C137.203049,226.772476 134.860275,224.163925 133.444016,222.232834 
	C130.529022,218.258163 126.210686,219.818130 122.938072,226.634308 
z"/>
<path fill="#6C6C6C" opacity="1.000000" stroke="none" 
	d="
M59.159481,220.581528 
	C60.961788,222.461899 62.878571,223.842773 63.946724,225.709290 
	C64.941345,227.447311 66.065689,230.370422 65.285378,231.576996 
	C64.037834,233.506042 61.259506,235.516068 59.132526,235.511551 
	C56.896484,235.506821 54.595646,233.269379 52.513515,231.747162 
	C52.228271,231.538635 53.042412,229.826309 53.580593,228.034180 
	C56.428814,232.257401 59.217495,235.363449 63.431919,228.915756 
	C61.426525,227.080490 58.859348,225.357498 57.173161,223.003479 
	C55.632042,220.851990 54.794476,218.075775 54.183453,215.450012 
	C53.991982,214.627228 55.631470,212.457520 56.278728,212.519287 
	C59.127453,212.791199 61.935341,213.599167 64.707359,214.390396 
	C64.969536,214.465210 64.878334,215.778076 64.951195,216.516144 
	C63.891678,216.322723 62.838013,216.083572 61.771229,215.946884 
	C60.274857,215.755142 58.768730,215.639587 57.266773,215.491440 
	C57.812393,217.092270 58.358017,218.693115 59.159481,220.581528 
z"/>
<path fill="#666666" opacity="1.000000" stroke="none" 
	d="
M581.315552,228.377014 
	C579.783875,232.247864 577.933960,235.154373 573.504211,235.086548 
	C569.831482,235.030350 566.466431,234.340424 564.863159,230.610138 
	C563.190857,226.719086 563.085510,222.429825 566.706055,219.925598 
	C569.012451,218.330353 572.740051,217.774063 575.559998,218.274780 
	C577.624084,218.641296 579.553711,221.275162 580.949402,223.306442 
	C581.734192,224.448563 581.313782,226.418823 581.315552,228.377014 
M570.454773,221.093689 
	C565.654968,222.895798 566.402100,226.644394 567.709473,230.095535 
	C568.778320,232.916870 571.587036,234.138580 574.088745,232.340729 
	C576.144958,230.863098 578.869568,227.982330 578.599792,226.112823 
	C578.117371,222.770233 575.942566,219.226425 570.454773,221.093689 
z"/>
<path fill="#5B5C5E" opacity="1.000000" stroke="none" 
	d="
M430.183533,224.767426 
	C429.880890,228.278091 429.689117,231.385025 429.497314,234.491974 
	C428.900787,234.477814 428.304291,234.463638 427.707764,234.449478 
	C427.707764,229.187653 427.707764,223.925827 427.707764,218.453766 
	C431.900299,220.393784 438.285736,213.999283 440.940399,221.283875 
	C442.390442,225.262802 441.749695,230.003647 442.051849,234.400894 
	C441.153442,234.436127 440.255005,234.471359 439.356598,234.506592 
	C439.241974,231.889008 439.432861,229.209824 438.921082,226.672348 
	C438.469879,224.435165 437.233978,222.356247 436.344543,220.207458 
	C434.327850,221.592880 432.311127,222.978271 430.183533,224.767426 
z"/>
<path fill="#666666" opacity="1.000000" stroke="none" 
	d="
M604.861816,212.146667 
	C605.547913,213.002060 606.719238,213.801315 606.825867,214.723724 
	C607.105408,217.139725 606.920166,219.609497 606.920166,222.537323 
	C610.666077,220.706329 613.872314,219.139099 617.078552,217.571869 
	C617.312134,217.952225 617.545776,218.332581 617.779358,218.712921 
	C615.883972,220.285736 613.930359,221.794296 612.107849,223.447433 
	C609.760742,225.576370 608.591431,227.573105 612.693542,229.265869 
	C614.638733,230.068573 616.318665,231.514191 618.118774,232.668533 
	C617.417847,233.521622 616.716919,234.374695 616.015991,235.227783 
	C613.361572,233.226639 610.707214,231.225510 607.546143,228.842407 
	C607.347717,230.619736 607.196289,231.976181 606.540710,233.651093 
	C605.661133,232.663742 604.990112,231.364456 604.961060,230.050980 
	C604.829102,224.085068 604.877991,218.115143 604.861816,212.146667 
z"/>
<path fill="#5A5B5D" opacity="1.000000" stroke="none" 
	d="
M217.059143,232.164490 
	C217.034225,227.438583 217.034225,223.132568 217.034225,218.362534 
	C221.718094,219.830658 227.490280,214.951340 230.397461,220.232803 
	C232.462067,223.983551 231.795334,229.237747 232.347687,233.820892 
	C231.676041,233.897537 231.004410,233.974182 230.332779,234.050827 
	C230.227875,232.618683 230.040375,231.186890 230.033905,229.754288 
	C230.016022,225.797012 230.728683,221.260391 225.417526,220.199600 
	C222.088394,219.534653 220.056503,223.378098 219.977692,229.552094 
	C219.962891,230.711075 220.210052,232.022705 219.759537,232.997269 
	C218.648697,235.400345 217.723083,234.430786 217.059143,232.164490 
z"/>
<path fill="#666666" opacity="1.000000" stroke="none" 
	d="
M193.720978,223.476898 
	C194.651978,221.473145 195.391861,219.803345 196.219849,218.178467 
	C196.259537,218.100555 197.479645,218.522781 197.475632,218.538406 
	C197.006363,220.360168 196.593552,222.211716 195.920609,223.962875 
	C193.976364,229.022247 191.993927,234.070221 189.842880,239.043228 
	C189.526215,239.775360 188.212372,240.076141 187.359894,240.576508 
	C187.227203,239.706802 186.663010,238.529739 187.029343,238.015518 
	C190.267380,233.469879 187.585388,229.889587 185.517258,226.012863 
	C184.291565,223.715256 183.754913,221.050064 182.908417,218.550140 
	C183.460052,218.298264 184.011688,218.046387 184.563324,217.794510 
	C186.496353,221.676926 188.429367,225.559341 190.462067,229.641968 
	C191.563629,227.563110 192.555405,225.691406 193.720978,223.476898 
z"/>
<path fill="#6C6C6C" opacity="1.000000" stroke="none" 
	d="
M341.341858,225.350159 
	C342.763428,228.514282 344.332764,231.344406 345.902100,234.174515 
	C345.380798,234.610367 344.859497,235.046219 344.338165,235.482086 
	C342.531860,233.568741 340.725525,231.655380 338.768433,229.582321 
	C337.590576,231.049301 335.975647,233.060623 334.360718,235.071945 
	C333.848938,234.748520 333.337189,234.425110 332.825439,234.101700 
	C334.201050,231.630386 336.685944,229.142563 336.649445,226.692307 
	C336.610687,224.089981 334.180176,221.523300 332.794128,218.941055 
	C333.427246,218.371017 334.060364,217.800980 334.693481,217.230957 
	C335.907440,219.110718 337.121399,220.990479 338.836975,223.647018 
	C340.021545,221.947617 340.758270,220.442520 341.907379,219.385742 
	C342.805756,218.559555 344.215637,218.289566 345.398254,217.772430 
	C345.639221,218.143066 345.880219,218.513702 346.121185,218.884338 
	C344.577332,220.928284 343.033447,222.972229 341.341858,225.350159 
z"/>
<path fill="#6C6C6C" opacity="1.000000" stroke="none" 
	d="
M630.359741,218.093521 
	C631.795349,218.859756 632.841980,219.630005 634.038696,220.510651 
	C633.191772,221.171082 632.936401,221.542068 632.677673,221.544373 
	C630.860840,221.560593 629.043213,221.500854 627.225891,221.465424 
	C628.407043,222.951340 629.682922,224.373093 630.743958,225.940323 
	C631.921936,227.680389 633.376831,229.458832 633.765686,231.409119 
	C633.951843,232.342316 632.090393,234.512024 630.919006,234.708786 
	C628.734009,235.075821 626.375732,234.410416 624.089539,234.174667 
	C624.143677,233.733246 624.197876,233.291824 624.252014,232.850403 
	C626.735840,232.232254 629.219666,231.614120 632.481506,230.802338 
	C628.344055,226.956665 621.623535,225.281982 625.662903,218.097534 
	C627.020081,218.097534 628.495422,218.097534 630.359741,218.093521 
z"/>
<path fill="#5A5B5D" opacity="1.000000" stroke="none" 
	d="
M175.889191,211.592957 
	C176.029205,212.408493 176.061539,213.352585 175.779999,213.457947 
	C170.076309,215.592255 173.655350,217.298843 176.027252,219.095932 
	C169.310898,222.673233 175.777466,230.131104 170.909943,235.284134 
	C170.530762,233.062576 170.244171,231.568497 170.025436,230.064545 
	C169.521606,226.600769 169.120743,223.120514 168.544846,219.669189 
	C168.067383,216.807632 172.652527,211.315979 175.889191,211.592957 
z"/>
<path fill="#5A5B5D" opacity="1.000000" stroke="none" 
	d="
M521.670898,234.413696 
	C520.875916,231.067993 520.536560,227.494644 519.967224,223.958328 
	C519.705139,222.329895 518.992737,220.773926 518.292175,218.583725 
	C518.875549,217.212158 519.865906,214.883728 521.097778,211.987473 
	C522.515320,214.359558 523.927795,216.723145 525.177856,218.814941 
	C524.480042,220.645065 523.431580,222.543869 523.059448,224.567093 
	C522.476868,227.734268 522.351562,230.985535 521.670898,234.413696 
z"/>
<path fill="#5A5B5D" opacity="1.000000" stroke="none" 
	d="
M355.655884,217.294128 
	C356.030670,215.386749 356.225037,213.825684 356.419434,212.264618 
	C356.776245,212.171097 357.133087,212.077576 357.489899,211.984055 
	C358.542267,214.384232 359.594635,216.784393 360.170807,218.098541 
	C359.387817,224.234070 358.714722,229.508514 358.041626,234.782959 
	C354.175201,229.602188 358.856659,223.124222 353.211060,218.650650 
	C354.042328,218.279816 354.758911,217.960144 355.655884,217.294128 
z"/>
<path fill="#E1E1E1" opacity="1.000000" stroke="none" 
	d="
M273.417236,166.868118 
	C272.998932,147.252136 272.998932,127.482666 272.998932,106.953644 
	C270.161560,106.953644 267.584045,106.953644 264.558319,106.917564 
	C267.227478,106.470383 270.344849,106.059280 273.835541,105.598946 
	C273.835541,126.353729 273.835541,146.534180 273.417236,166.868118 
z"/>
<path fill="#9E9EA1" opacity="1.000000" stroke="none" 
	d="
M571.530945,107.293976 
	C571.952637,129.399887 571.982727,151.684708 571.968872,174.429337 
	C571.605652,174.228622 571.007202,173.567978 571.007446,172.907562 
	C571.015991,151.095993 571.081848,129.284424 571.530945,107.293976 
z"/>
<path fill="#9E9EA1" opacity="1.000000" stroke="none" 
	d="
M368.461395,174.643372 
	C368.083527,152.597046 368.072693,130.342270 368.085449,107.630486 
	C368.405151,107.866890 368.959991,108.560417 368.959656,109.253685 
	C368.949219,130.980774 368.884705,152.707855 368.461395,174.643372 
z"/>
<path fill="#6F0837" opacity="1.000000" stroke="none" 
	d="
M874.514282,68.220650 
	C875.815369,65.888535 877.083984,63.076660 879.197937,61.235447 
	C883.748901,57.271767 888.691467,53.747932 893.579224,50.188976 
	C894.562744,49.472881 896.014282,49.399506 897.627136,49.033386 
	C892.097351,54.055553 886.209045,59.096302 880.271912,64.078949 
	C878.541138,65.531456 876.671143,66.818161 874.514282,68.220650 
z"/>
<path fill="#5D5E60" opacity="1.000000" stroke="none" 
	d="
M589.190674,219.528320 
	C591.751831,218.603241 594.223022,218.114410 597.248169,217.515976 
	C595.163818,220.611221 592.927246,222.767242 592.184570,225.352432 
	C591.390625,228.116150 592.005676,231.284668 591.058838,234.300613 
	C587.930176,229.747650 589.442749,224.748215 589.190674,219.528320 
z"/>
<path fill="#828283" opacity="1.000000" stroke="none" 
	d="
M119.474014,142.063477 
	C121.078781,141.742538 123.148827,141.074402 125.221695,141.065506 
	C143.459503,140.987259 161.697830,141.026367 180.394928,141.045822 
	C179.178665,141.373749 177.504501,141.952225 175.828140,141.958710 
	C157.199158,142.030838 138.569839,142.014435 119.474014,142.063477 
z"/>
<path fill="#9E9EA1" opacity="1.000000" stroke="none" 
	d="
M73.896378,225.089722 
	C73.896873,222.488297 73.896873,220.365173 73.896873,218.050125 
	C76.764565,219.495819 77.757553,225.282928 76.689987,233.269547 
	C76.586670,234.042496 75.553238,234.691116 73.895889,234.855942 
	C73.895889,231.759979 73.895889,228.664017 73.896378,225.089722 
z"/>
<path fill="#E4216E" opacity="1.000000" stroke="none" 
	d="
M670.007690,118.508545 
	C676.049011,123.507362 678.249084,130.764465 679.918213,138.680069 
	C676.613892,132.343552 673.312500,125.608551 670.007690,118.508545 
z"/>
<path fill="#E1E1E1" opacity="1.000000" stroke="none" 
	d="
M631.507812,174.700867 
	C631.062134,161.564453 631.002808,148.239929 630.971313,134.445953 
	C631.342834,134.766754 631.984863,135.556610 631.985962,136.347351 
	C632.003540,149.069092 631.939575,161.790955 631.507812,174.700867 
z"/>
<path fill="#6F0837" opacity="1.000000" stroke="none" 
	d="
M898.324219,48.828049 
	C902.765320,45.017132 907.499268,41.036366 912.595093,37.026394 
	C908.177063,40.884193 903.397095,44.771194 898.324219,48.828049 
z"/>
<path fill="#828283" opacity="1.000000" stroke="none" 
	d="
M622.100586,140.554962 
	C622.427795,145.542847 622.829651,150.988403 622.956360,156.440323 
	C623.091797,162.268021 622.967651,168.101761 622.946106,174.391663 
	C622.625854,173.672302 622.054504,172.495575 622.047974,171.315720 
	C621.992065,161.215942 622.038391,151.115601 622.100586,140.554962 
z"/>
<path fill="#6F0837" opacity="1.000000" stroke="none" 
	d="
M913.320190,36.835999 
	C914.971680,34.197590 916.946289,31.437944 918.967285,28.328754 
	C920.390137,27.800270 921.766479,27.621336 923.142883,27.442400 
	C923.434082,27.903311 923.725220,28.364222 924.016418,28.825132 
	C920.558716,31.455011 917.101074,34.084888 913.320190,36.835999 
z"/>
<path fill="#C6C6C9" opacity="1.000000" stroke="none" 
	d="
M580.496460,174.686981 
	C580.177673,164.171753 580.242188,153.465240 580.581543,142.457977 
	C580.864136,152.936722 580.871887,163.716217 580.496460,174.686981 
z"/>
<path fill="#E1E1E1" opacity="1.000000" stroke="none" 
	d="
M604.487915,212.345551 
	C604.877991,218.115143 604.829102,224.085068 604.961060,230.050980 
	C604.990112,231.364456 605.661133,232.663742 606.461365,234.039520 
	C604.567627,235.910629 603.983826,234.865860 604.011230,232.450821 
	C604.086426,225.815811 604.085083,219.179947 604.487915,212.345551 
z"/>
<path fill="#C6C6C9" opacity="1.000000" stroke="none" 
	d="
M120.505379,218.293945 
	C120.915833,223.906845 120.857018,229.693130 120.997238,235.474579 
	C121.033279,236.960648 121.696472,238.431488 122.486343,239.995789 
	C122.050240,240.440247 121.199333,240.798248 120.110168,241.256500 
	C120.110168,233.241455 120.110168,225.853485 120.505379,218.293945 
z"/>
<path fill="#5A5B5D" opacity="1.000000" stroke="none" 
	d="
M147.637787,232.376099 
	C147.417084,226.239182 147.417084,219.846802 147.417084,213.454437 
	C147.564224,213.448105 147.711365,213.441788 147.858505,213.435455 
	C147.858505,219.663849 147.858505,225.892242 147.637787,232.376099 
z"/>
<path fill="#6F0837" opacity="1.000000" stroke="none" 
	d="
M870.194824,69.340179 
	C870.882507,68.998512 871.676086,69.030144 872.865784,69.103325 
	C872.459534,70.049232 871.657166,70.953590 870.576782,71.923416 
	C870.299438,71.230423 870.300110,70.471947 870.194824,69.340179 
z"/>
<path fill="#F26B63" opacity="1.000000" stroke="none" 
	d="
M700.922546,76.602310 
	C700.255920,76.772148 699.437744,76.633034 698.346741,76.339447 
	C698.972961,76.221100 699.871948,76.257233 700.922546,76.602310 
z"/>
<path fill="#6F0837" opacity="1.000000" stroke="none" 
	d="
M915.676514,28.059498 
	C915.486572,28.170097 914.979675,28.300159 914.287109,28.336115 
	C914.520752,28.187660 914.940186,28.133312 915.676514,28.059498 
z"/>
<path fill="#6F0837" opacity="1.000000" stroke="none" 
	d="
M918.918091,27.831749 
	C918.848450,27.988377 918.678406,27.990257 918.253296,27.994797 
	C918.271423,27.890638 918.544617,27.783819 918.918091,27.831749 
z"/>
<path fill="#6F0837" opacity="1.000000" stroke="none" 
	d="
M916.884644,27.862839 
	C916.973083,28.012444 916.504028,28.011978 916.269592,28.012054 
	C916.288818,27.912498 916.542542,27.812866 916.884644,27.862839 
z"/>
<path fill="#F79F3F" opacity="1.000000" stroke="none" 
	d="
M765.621704,83.221916 
	C765.660339,83.404770 765.428406,83.574165 765.051086,83.882568 
	C764.980225,83.740852 765.128662,83.469810 765.621704,83.221916 
z"/>
<path fill="#EE3D6B" opacity="1.000000" stroke="none" 
	d="
M669.010498,68.419235 
	C673.253845,68.556473 675.631165,70.966400 677.074463,75.021027 
	C685.309448,98.155350 693.683777,121.240433 702.110291,144.305893 
	C703.754333,148.805923 705.836792,153.145782 707.910767,157.882233 
	C706.936646,160.003220 705.768799,161.801453 704.388550,163.838852 
	C702.827332,162.557220 700.876526,161.258728 700.220398,159.482117 
	C691.482483,135.821732 682.818420,112.132439 674.395935,88.358269 
	C672.148621,82.014938 670.778992,75.360695 669.010498,68.419235 
z"/>
<path fill="#F4785E" opacity="1.000000" stroke="none" 
	d="
M714.054688,81.375519 
	C715.213684,81.170540 716.372314,81.622551 717.497986,81.551567 
	C723.523132,81.171661 724.872375,84.718391 726.230835,89.879379 
	C728.371338,98.011551 731.766174,105.835091 734.984924,113.642960 
	C735.596008,115.125305 737.855835,115.928001 739.737183,117.092972 
	C738.500793,119.243439 736.882202,121.345192 735.062378,123.714554 
	C728.262817,126.203583 728.795837,126.044281 726.739990,119.165222 
	C724.195374,110.650513 720.554932,102.468681 717.586121,94.072960 
	C716.167969,90.062408 715.207092,85.890167 714.054688,81.375519 
z"/>
<path fill="#F7904C" opacity="1.000000" stroke="none" 
	d="
M742.550293,84.031761 
	C743.683289,86.408722 744.586243,88.729584 745.002502,91.134674 
	C746.169556,97.877045 749.767822,99.686523 755.831299,96.172165 
	C754.091492,98.976181 752.005066,101.833191 749.408569,105.012779 
	C748.609192,105.576889 748.320007,105.818420 748.030762,106.059952 
	C748.030762,106.059959 748.051514,105.999405 747.879333,106.261566 
	C747.505859,107.113876 747.304565,107.704025 747.103333,108.294174 
	C747.022766,108.544426 746.884155,108.756828 746.529175,109.037445 
	C742.223022,108.519875 739.727356,106.993820 740.416138,101.905899 
	C740.696533,99.834930 738.488220,97.477493 737.586975,95.181786 
	C736.699585,92.921043 736.033325,90.573448 736.077881,87.938530 
	C734.980103,87.100723 733.882324,86.262917 732.784607,85.425110 
	C732.846619,84.954781 732.908630,84.484444 732.970581,84.014114 
	C736.013123,84.014114 739.055603,84.014114 742.550293,84.031761 
z"/>
<path fill="#F58457" opacity="1.000000" stroke="none" 
	d="
M747.339294,108.073013 
	C747.304565,107.704025 747.505859,107.113876 747.905518,106.280006 
	C747.927673,106.641479 747.751465,107.246674 747.339294,108.073013 
z"/>
<path fill="#F4785E" opacity="1.000000" stroke="none" 
	d="
M741.274902,115.863518 
	C741.339294,115.520714 741.640564,114.977951 742.202820,114.249260 
	C742.146545,114.596741 741.829224,115.130150 741.274902,115.863518 
z"/>
<path fill="#F7904C" opacity="1.000000" stroke="none" 
	d="
M756.272339,96.003494 
	C756.247925,95.850044 756.465088,95.595528 756.884399,95.192261 
	C756.895752,95.329811 756.704834,95.616127 756.272339,96.003494 
z"/>
<path fill="#F58457" opacity="1.000000" stroke="none" 
	d="
M748.319946,105.999207 
	C748.320007,105.818420 748.609192,105.576889 749.152832,105.203812 
	C749.141174,105.360992 748.875183,105.649727 748.319946,105.999207 
z"/>
<path fill="#F4785E" opacity="1.000000" stroke="none" 
	d="
M740.269531,116.958458 
	C740.222046,116.789177 740.437866,116.542961 740.873047,116.166367 
	C740.879089,116.294365 740.692505,116.576210 740.269531,116.958458 
z"/>
<path fill="#000000" opacity="1.000000" stroke="none" 
	d="
M213.695251,152.046204 
	C210.665344,140.809189 210.427994,130.408203 219.651825,122.020317 
	C236.139267,107.027077 258.021118,114.736877 263.055786,133.130096 
	C266.931152,147.288147 263.407898,159.838547 245.490250,165.234238 
	C232.043640,169.283524 219.743347,164.123993 213.695251,152.046204 
z"/>
<path fill="#000000" opacity="1.000000" stroke="none" 
	d="
M531.658203,129.545410 
	C536.084839,139.966736 535.353394,150.113083 528.631104,158.265656 
	C524.865051,162.833038 518.255615,166.185822 512.328674,167.631104 
	C494.020508,172.095596 481.669647,156.445953 481.227722,141.768707 
	C480.931396,131.926712 485.509186,123.786011 493.750854,118.362213 
	C503.091705,112.215012 512.938721,112.585442 522.006165,118.864037 
	C525.757507,121.461609 528.374634,125.697357 531.658203,129.545410 
z"/>
<path fill="#000000" opacity="1.000000" stroke="none" 
	d="
M122.134445,133.899078 
	C122.041519,131.856659 121.878036,129.628220 122.702080,127.860016 
	C127.471024,117.626991 138.530991,112.660072 147.942215,114.179657 
	C158.065277,115.814178 167.547379,121.797455 169.458939,133.925644 
	C153.775223,133.925644 138.147629,133.925644 122.134445,133.899078 
z"/>
<path fill="#000000" opacity="1.000000" stroke="none" 
	d="
M335.651245,114.005478 
	C347.264801,116.559914 355.602295,122.538727 358.893677,133.933914 
	C362.489166,146.382111 357.678711,160.074646 344.727417,165.609070 
	C334.654663,169.913406 325.023285,169.814804 316.414703,162.002350 
	C306.697510,153.183792 303.882904,140.695892 309.857605,128.958252 
	C314.896271,119.059433 323.806152,113.970650 335.651245,114.005478 
z"/>
<path fill="#000000" opacity="1.000000" stroke="none" 
	d="
M244.967361,230.942719 
	C241.979279,227.272400 242.466782,224.522690 245.851822,221.760635 
	C248.567596,219.544662 251.021545,219.677505 253.297424,221.890671 
	C255.321640,223.859131 256.955841,226.211624 254.951477,229.250809 
	C253.070419,232.103058 248.542252,233.064636 244.967361,230.942719 
z"/>
<path fill="#000000" opacity="1.000000" stroke="none" 
	d="
M315.393738,220.404907 
	C317.835785,221.151749 319.973633,222.136505 322.111511,223.121262 
	C321.952362,223.623566 321.793213,224.125870 321.634064,224.628174 
	C318.537598,224.628174 315.441101,224.628174 312.344635,224.628174 
	C312.118134,224.294815 311.891663,223.961456 311.665161,223.628098 
	C312.806641,222.632996 313.948120,221.637894 315.393738,220.404907 
z"/>
<path fill="#000000" opacity="1.000000" stroke="none" 
	d="
M412.605957,224.061401 
	C409.710968,224.455826 407.198975,224.841461 404.415497,225.268784 
	C406.365509,218.998047 409.493103,218.628601 415.458130,223.701248 
	C414.453735,223.844193 413.721344,223.948410 412.605957,224.061401 
z"/>
<path fill="#000000" opacity="1.000000" stroke="none" 
	d="
M505.030273,222.783356 
	C502.071594,223.972488 498.909637,224.857025 494.540588,226.079239 
	C498.023712,219.420380 500.141083,218.994705 505.030273,222.783356 
z"/>
<path fill="#000000" opacity="1.000000" stroke="none" 
	d="
M122.947014,226.236877 
	C126.210686,219.818130 130.529022,218.258163 133.444016,222.232834 
	C134.860275,224.163925 137.203049,226.772476 134.819107,229.076523 
	C132.885040,230.945724 129.795883,232.835709 127.416290,232.612610 
	C125.751358,232.456512 124.418983,228.753296 122.947014,226.236877 
z"/>
<path fill="#000000" opacity="1.000000" stroke="none" 
	d="
M570.776611,220.885208 
	C575.942566,219.226425 578.117371,222.770233 578.599792,226.112823 
	C578.869568,227.982330 576.144958,230.863098 574.088745,232.340729 
	C571.587036,234.138580 568.778320,232.916870 567.709473,230.095535 
	C566.402100,226.644394 565.654968,222.895798 570.776611,220.885208 
z"/>
</svg>