<svg id="svg" version="1.1" viewBox="0 0 300 300" width="300" height="300" xmlns="http://www.w3.org/2000/svg"><svg xmlns="http://www.w3.org/2000/svg"><defs><clipPath id="clip-1"><rect x="0" y="0" transform="scale(0.14648,0.14648)" width="2048" height="2048" fill="none"/></clipPath><linearGradient x1="146.47515" y1="208.76953" x2="129.42129" y2="187.39307" gradientUnits="userSpaceOnUse" id="color-1"><stop offset="0" stop-color="#ff0000"/><stop offset="1" stop-color="#ff766b"/></linearGradient><linearGradient x1="139.9292" y1="188.1958" x2="135.77651" y2="183.8877" gradientUnits="userSpaceOnUse" id="color-2"><stop offset="0" stop-color="#ff8784"/><stop offset="1" stop-color="#ffb7b2"/></linearGradient><linearGradient x1="137.32646" y1="186.75879" x2="134.33174" y2="183.29443" gradientUnits="userSpaceOnUse" id="color-3"><stop offset="0" stop-color="#ffb7b5"/><stop offset="1" stop-color="#ffeae6"/></linearGradient><linearGradient x1="222.64893" y1="162.08057" x2="90.30688" y2="116.79448" gradientUnits="userSpaceOnUse" id="color-4"><stop offset="0" stop-color="#760105"/><stop offset="1" stop-color="#a8000e"/></linearGradient><linearGradient x1="150.30469" y1="214.13965" x2="125.90552" y2="181.16602" gradientUnits="userSpaceOnUse" id="color-5"><stop offset="0" stop-color="#af000d"/><stop offset="1" stop-color="#ff0d1f"/></linearGradient><linearGradient x1="144.83481" y1="177.77197" x2="142.67314" y2="173.89307" gradientUnits="userSpaceOnUse" id="color-6"><stop offset="0" stop-color="#ff9591"/><stop offset="1" stop-color="#fff5f0"/></linearGradient><linearGradient x1="135.19687" y1="186.86426" x2="132.22134" y2="181.45752" gradientUnits="userSpaceOnUse" id="color-7"><stop offset="0" stop-color="#ff7c77"/><stop offset="1" stop-color="#ffbbb8"/></linearGradient><linearGradient x1="144.77095" y1="197.84473" x2="165.66211" y2="223.59521" gradientUnits="userSpaceOnUse" id="color-8"><stop offset="0" stop-color="#7e0107"/><stop offset="1" stop-color="#c60012"/></linearGradient><linearGradient x1="201.83203" y1="162.26514" x2="216.52148" y2="174.62109" gradientUnits="userSpaceOnUse" id="color-9"><stop offset="0" stop-color="#730106"/><stop offset="1" stop-color="#e10019"/></linearGradient><linearGradient x1="145.57896" y1="103.22388" x2="130.47686" y2="82.93726" gradientUnits="userSpaceOnUse" id="color-10"><stop offset="0" stop-color="#ff3e3d"/><stop offset="1" stop-color="#ffa9a4"/></linearGradient><linearGradient x1="119.84663" y1="104.04683" x2="114.53584" y2="98.28428" gradientUnits="userSpaceOnUse" id="color-11"><stop offset="0" stop-color="#ffa7a5"/><stop offset="1" stop-color="#ffdeda"/></linearGradient><linearGradient x1="223.88086" y1="67.67432" x2="226.7373" y2="62.07539" gradientUnits="userSpaceOnUse" id="color-12"><stop offset="0" stop-color="#ff6a68"/><stop offset="1" stop-color="#ffc2bc"/></linearGradient><linearGradient x1="94.21318" y1="124.15649" x2="101.74102" y2="100.98384" gradientUnits="userSpaceOnUse" id="color-13"><stop offset="0" stop-color="#ff4946"/><stop offset="1" stop-color="#ffa6a4"/></linearGradient></defs><g clip-path="url(#clip-1)" fill="none" fill-rule="nonzero" stroke="none" stroke-width="1" stroke-linecap="butt" stroke-linejoin="miter" stroke-miterlimit="10" stroke-dasharray="" stroke-dashoffset="0" font-family="none" font-weight="none" font-size="none" text-anchor="none" style="mix-blend-mode: normal"><path d="M76.96289,133.7042c0.74517,-2.19771 2.07407,-4.43437 3.22603,-6.4519c7.07256,-12.38672 17.4022,-23.30801 28.37505,-32.34507c25.91265,-21.34131 67.99951,-43.11636 102.41309,-39.75308c13.89404,1.35806 26.82129,6.62021 35.81982,17.67524c9.20947,11.31416 12.07617,26.37026 10.58643,40.6188c-0.52588,6.44971 -2.1123,13.06699 -4.05908,19.22637c-2.02295,6.44648 -4.58496,12.71104 -7.66113,18.72729c-9.52002,18.39111 -24.33545,35.02734 -40.07227,48.39258c-16.97754,14.41846 -52.2876,41.39209 -75.23877,39.44678c-6.06519,-0.51416 -11.44717,-2.9707 -15.38291,-7.6875c-2.4186,-2.89893 -4.34897,-7.0166 -4.52695,-10.83105c-0.29795,-1.13379 -0.23335,-5.12695 -0.12466,-6.37939c1.37036,-14.74219 10.448,-28.08252 21.43784,-37.55273c7.6144,-6.56104 18.19775,-11.42432 28.39893,-8.85205c2.17676,0.54785 5.39941,1.98486 6.86133,3.74854c1.79443,1.44727 2.896,4.48535 3.06885,6.76025c0.68262,9.05273 -7.90869,18.09229 -14.50488,23.51221c-6.98291,5.73926 -13.46602,9.16113 -19.20176,16.56152c-5.24194,6.76465 -1.36787,12.0498 6.38994,10.4502c11.17559,-2.3042 24.19219,-10.50586 33.24492,-17.25439c1.84277,-1.36816 3.65625,-2.77295 5.44189,-4.21436c0.75146,-0.6123 2.75244,-2.33789 3.38672,-2.72314c0.19922,-0.36914 6.83496,-6.35889 7.61133,-7.11768c17.84619,-17.4624 35.76855,-42.5083 35.8374,-68.4813c-0.11719,-5.41025 -1.0166,-11.0168 -5.08887,-14.95151c-3.26807,-3.15674 -7.56445,-3.93267 -11.95605,-3.81401c-18.73096,0.50625 -45.20361,19.1647 -60.24463,30.05947c-5.26011,3.86279 -10.50117,7.75181 -15.72246,11.6688c-14.06924,10.43701 -39.37573,29.11816 -56.2106,13.70508c-4.2186,-3.86279 -5.96353,-9.0542 -6.17783,-14.69385c-0.17944,-4.71943 1.6749,-13.30371 4.07329,-17.4501z" fill="#f80f20"/><path d="M157.93652,170.83154c2.97949,0.1084 5.46387,2.17529 6.50684,4.90869c0.01172,1.20557 0.31348,1.70654 0.27979,3.27686c0.0249,7.11768 -6.09229,11.00244 -10.7373,15.31201c-0.97998,0.9082 -1.86914,1.77539 -3.01611,2.49463c-0.44678,-0.20068 -0.38965,-0.24023 -0.83789,-0.23145c-2.07422,1.54395 -4.21597,3.07324 -6.38818,4.48096c-1.37153,0.88916 -4.45269,2.30859 -5.59849,3.34863c1.55317,-0.35596 4.74097,-2.61621 5.92178,-2.67773c-1.16558,0.80127 -0.85371,0.79102 -2.31519,1.29932c-0.91362,0.31787 -2.14233,1.39746 -3.1207,1.71533c-1.95747,1.14111 -3.51782,2.43896 -5.35972,3.90674c-1.70874,1.3623 -7.14126,4.55127 -8.01387,6.32666c-0.70181,1.42676 -0.49746,5.65283 -1.13145,7.37549c-0.20903,0.87012 0.44282,2.13721 -0.20244,3.07471c0.22588,0.646 -0.07881,1.2334 -0.421,1.79443c-0.1897,0.31055 -0.63018,0.29297 -0.95229,0.29736c-2.22993,-0.36621 -3.01143,-1.94971 -5.3751,-0.52734c-0.20464,0.12305 -0.20083,0.19482 -0.31729,0.43359c-1.24043,-1.4751 -1.15562,-4.11914 -1.8501,-4.85889c-0.15249,-0.83057 -0.29634,-1.50293 -0.28975,-2.354c0.27217,-0.68115 0.1229,-1.3916 0.28887,-2.00977c0.80317,-2.99707 0.33428,-5.91211 0.55386,-8.85937c0.2981,-3.99902 2.30347,-8.02002 4.00063,-11.60742c0.5187,-0.91113 1.17568,-2.14453 1.78271,-2.95898c1.07402,-0.26807 1.68091,-3.09521 3.72451,-2.99854c0.37925,0.01904 1.2873,-0.31787 1.71519,-0.03955c-0.248,0.49658 -0.7478,0.95801 -0.72231,1.46924c0.41997,-0.30908 2.55908,-3.55518 3.21182,-4.29199c3.02769,-4.27881 6.94131,-7.85596 11.47471,-10.48828c1.11753,-0.64893 2.26729,-0.92285 3.34307,-1.6582c0.2458,-0.30615 0.44722,-0.32812 0.83965,-0.50391l-0.14121,-0.32666c1.48623,-0.63281 2.77588,-1.06934 4.30664,-1.54541c0.81445,-0.31201 1.48535,-0.5874 2.33496,-0.79395c0.65918,0.06592 1.44287,-0.18896 2.11084,-0.35156c0.70166,-0.09375 2.90918,-0.67676 3.43213,-1.08838l-0.11572,-0.15088c-0.37939,0.04248 -0.56396,0.06885 -0.95068,0.06152c0.1875,-0.39697 0.39844,-1.00488 0.74854,-1.19385c0.56543,0.04541 0.72363,0.04248 1.28027,-0.06006z" fill="url(#color-1)"/><path d="M151.43115,173.61475c0.65918,0.06592 1.44287,-0.18896 2.11084,-0.35156c-1.54687,1.52051 -8.94785,9.31787 -9.21694,11.05078c0.77739,0.08057 1.01162,-0.23584 1.53604,-0.01758c-0.07632,0.34717 -0.74912,1.32861 -0.96782,1.32861c-0.73887,0.00293 -0.89194,0.271 -1.52183,0.50537l-0.07573,-0.14062c0.44736,-0.50977 0.77358,-0.81738 1.27339,-1.28174l-0.16289,-0.04248c-0.37295,0.26367 -2.22275,1.67285 -2.3458,1.93652l0.32637,0.13184l-0.05186,0.12451l-0.28008,0.04248c-0.0728,0.46582 -0.1478,0.3252 0.03618,0.58447l0.62227,0.06885c-0.33545,0.14941 -0.81343,0.38672 -1.15195,0.47461c0.20215,0.03662 0.38848,0.08203 0.58652,0.14209c-0.35054,0.20508 -0.55781,0.32813 -0.89194,0.56982c0.42773,0.13477 0.55181,0.07617 0.99873,0.01172l0.07456,0.18311c-2.24648,2.89893 -10.10522,7.60547 -13.58921,9.17725l-0.20859,-0.0835c0.3832,-0.27979 0.54287,-0.38965 0.88374,-0.73682l-0.08496,-0.09375c-1.68486,-0.06738 -4.39409,1.66406 -6.78926,2.17822c1.03022,-2.2793 2.52378,-4.15137 3.52061,-6.15381c0.41997,-0.30908 2.55908,-3.55518 3.21182,-4.29199c3.02769,-4.27881 6.94131,-7.85596 11.47471,-10.48828c1.11753,-0.64893 2.26729,-0.92285 3.34307,-1.6582c0.2458,-0.30615 0.44722,-0.32812 0.83965,-0.50391l-0.14121,-0.32666c1.48623,-0.63281 2.77588,-1.06934 4.30664,-1.54541c0.81445,-0.31201 1.48535,-0.5874 2.33496,-0.79395z" fill="url(#color-2)"/><path d="M144.09111,176.78467l0.03896,0.15381c-1.68179,1.82666 -1.47671,3.30322 -2.7041,5.1665c-2.30273,3.49365 -5.72549,6.82471 -9.50903,8.67627c-1.81597,0.82764 -3.15483,1.00488 -5.22539,2.10352c0.67192,-0.93896 2.2686,-2.98096 2.58179,-3.95361c3.02769,-4.27881 6.94131,-7.85596 11.47471,-10.48828c1.11753,-0.64893 2.26729,-0.92285 3.34307,-1.6582z" fill="url(#color-3)"/><path d="M149.09619,174.40869c-0.61523,0.50098 -2.10937,0.94482 -3.00996,1.35791l0.19995,0.26221l0.23774,-0.14502l0.17139,-0.10254l0.14209,0.20068c-0.36138,0.31201 -0.15527,0.21533 -0.65186,0.27393c-0.63721,-0.3208 -0.5688,-0.31641 -1.25479,0.0249l-0.14121,-0.32666c1.48623,-0.63281 2.77588,-1.06934 4.30664,-1.54541z" fill="#ffaca9"/><path d="M141.24111,198.51709c0.79307,-0.81885 2.48804,-1.88965 3.38613,-2.7627c3.00703,-2.92236 6.44795,-5.39648 9.61201,-8.10059c2.10791,-1.80176 8.04346,-7.61133 10.48389,-8.63672c0.0249,7.11768 -6.09229,11.00244 -10.7373,15.31201c-0.97998,0.9082 -1.86914,1.77539 -3.01611,2.49463c-0.44678,-0.20068 -0.38965,-0.24023 -0.83789,-0.23145c-2.07422,1.54395 -4.21597,3.07324 -6.38818,4.48096c-1.37153,0.88916 -4.45269,2.30859 -5.59849,3.34863c-3.08745,1.45898 -6.73477,2.54297 -9.84683,4.09717c-1.01367,0.50684 -2.75273,0.69727 -3.84243,1.21143c-0.64541,0.2124 -2.52539,-0.08936 -3.29019,0.0249c-0.60981,0.09082 -3.63398,1.18213 -3.79673,1.10742c0.68145,-0.77783 10.34165,-4.80615 11.77573,-5.31738c1.15034,-0.82031 2.72769,-1.37109 3.87729,-2.15479c2.21807,-1.51318 4.38296,-2.89893 6.8146,-4.06055c0.49204,-0.23584 0.88301,-0.5874 1.40449,-0.81299z" fill="#fb1f2b"/><path d="M141.24111,198.51709c1.43628,-0.6123 3.00249,-2.02588 4.31572,-2.93408c3.30205,-2.28223 6.65508,-4.50439 9.77373,-7.03564c1.28027,-1.03418 7.87207,-6.79541 8.79639,-7.08398c-1.69482,2.14014 -6.43506,5.29102 -8.72021,7.33301c-2.79199,2.49463 -6.81885,4.74902 -9.81313,7.06494c-4.03301,2.94727 -8.11875,5.47559 -12.54346,7.79297c-0.93574,0.49072 -2.97656,1.75928 -3.90542,1.89111c1.15034,-0.82031 2.72769,-1.37109 3.87729,-2.15479c2.21807,-1.51318 4.38296,-2.89893 6.8146,-4.06055c0.49204,-0.23584 0.88301,-0.5874 1.40449,-0.81299z" fill="#f80f20"/><path d="M189.84229,111.83936l0.14355,-0.04438c1.96875,-0.63223 4.55713,-1.8917 6.6416,-2.66895c7.89551,-2.94463 17.67041,-5.70469 25.63037,-1.60796c5.07275,2.61108 7.90576,6.78501 9.65625,12.13535c0.6167,1.88335 1.36084,4.96963 1.47217,6.9394c-0.13037,1.14697 0.32959,3.38291 -0.12744,4.26108c-1.16016,-0.06987 -1.53076,-2.88091 -4.23779,-0.59854c-0.40869,0.34556 -0.36182,0.59429 -0.43506,1.13467c-0.1084,-0.64028 -0.12891,-1.81611 -0.2959,-2.20972c-0.11719,-5.41025 -1.0166,-11.0168 -5.08887,-14.95151c-3.26807,-3.15674 -7.56445,-3.93267 -11.95605,-3.81401c-18.73096,0.50625 -45.20361,19.1647 -60.24463,30.05947c-5.26011,3.86279 -10.50117,7.75181 -15.72246,11.6688c-14.06924,10.43701 -39.37573,29.11816 -56.2106,13.70508c-4.2186,-3.86279 -5.96353,-9.0542 -6.17783,-14.69385c-0.17944,-4.71943 1.6749,-13.30371 4.07329,-17.4501c-0.17988,1.48169 -1.06978,3.28271 -1.47261,4.73994c-0.90557,3.2748 -1.92056,6.39771 -2.03379,9.82441c-0.02124,0.64307 -0.28154,1.5542 -0.23481,2.18115c0.23613,3.16699 0.83247,6.85547 2.28281,9.71045c0.31553,-0.66211 1.4127,-0.77197 1.80146,-1.38428c0.15439,-0.60645 -0.35142,-2.37891 -0.58813,-2.92969c-0.5417,-1.26123 -0.81255,-7.4502 -0.30703,-8.30127c0.04263,1.27148 -0.20991,2.42871 -0.13418,3.6167c0.15776,2.47412 0.51138,4.97607 1.40801,7.29199c1.604,4.125 4.79707,7.43262 8.8626,9.18164c12.42979,5.31592 29.78218,-6.66357 39.5915,-13.74023c4.0333,-2.90625 8.0231,-5.87109 11.96792,-8.89585c6.10781,-4.67681 12.29766,-9.24478 18.56865,-13.70156c6.0835,-4.31147 12.36182,-8.34126 18.81592,-12.07676c4.44434,-2.59277 9.54639,-5.45889 14.35107,-7.38149z" fill="url(#color-4)"/><path d="M110.44219,220.72266c-0.29795,-1.13379 -0.23335,-5.12695 -0.12466,-6.37939c1.37036,-14.74219 10.448,-28.08252 21.43784,-37.55273c7.6144,-6.56104 18.19775,-11.42432 28.39893,-8.85205c2.17676,0.54785 5.39941,1.98486 6.86133,3.74854c1.13672,2.7334 2.71289,3.05566 2.58838,6.81299l-0.11719,0.0835l-0.4043,-0.34277c-0.69727,0.19043 -1.93799,3.5625 -2.27637,4.35791c-3.47754,8.19141 -9.96387,13.88525 -17.00098,19.00635c-7.78052,5.58545 -17.29087,11.61768 -20.49346,21.25635c-0.39536,1.20117 -0.28169,2.99268 -0.39888,4.22754c-0.42217,0.50244 0.54492,1.80615 0.70356,2.45654l-0.1481,0.06299c-1.99702,-0.95508 -2.83257,-5.08008 -2.40322,-7.07812c0.63091,-3.22119 3.02959,-5.59424 4.96509,-8.00537c3.01011,-3.74854 6.4686,-6.72363 10.03989,-9.92432c1.68604,-1.59375 4.40786,-2.83301 6.06958,-4.32861c4.70801,-4.23633 9.92725,-8.51953 14.00684,-13.34912c2.25879,-2.67334 3.85254,-7.93359 2.29688,-11.18262c-1.04297,-2.7334 -3.52734,-4.80029 -6.50684,-4.90869c-0.55664,0.10254 -0.71484,0.10547 -1.28027,0.06006c-0.3501,0.18896 -0.56104,0.79688 -0.74854,1.19385c0.38672,0.00732 0.57129,-0.01904 0.95068,-0.06152l0.11572,0.15088c-0.52295,0.41162 -2.73047,0.99463 -3.43213,1.08838c-0.66797,0.1626 -1.45166,0.41748 -2.11084,0.35156c-0.84961,0.20654 -1.52051,0.48193 -2.33496,0.79395c-1.53076,0.47607 -2.82041,0.9126 -4.30664,1.54541l0.14121,0.32666c-0.39243,0.17578 -0.59385,0.19775 -0.83965,0.50391c-1.07578,0.73535 -2.22554,1.00928 -3.34307,1.6582c-4.5334,2.63232 -8.44702,6.20947 -11.47471,10.48828c-0.65273,0.73682 -2.79185,3.98291 -3.21182,4.29199c-0.02549,-0.51123 0.47432,-0.97266 0.72231,-1.46924c-0.42788,-0.27832 -1.33594,0.05859 -1.71519,0.03955c-2.0436,-0.09668 -2.65049,2.73047 -3.72451,2.99854c-0.60703,0.81445 -1.26401,2.04785 -1.78271,2.95898c-1.69717,3.5874 -3.70254,7.6084 -4.00063,11.60742c-0.21958,2.94727 0.24932,5.8623 -0.55386,8.85938c-0.16597,0.61816 -0.0167,1.32861 -0.28887,2.00977c-0.00659,0.85107 0.13726,1.52344 0.28975,2.354c0.54404,2.92969 1.06758,4.32129 2.67876,6.84375c0.20669,0.31348 0.46069,0.67383 0.63765,0.99902l-0.15688,0.19775c0.25518,0.17285 0.16245,0.06445 0.29312,0.31348c-1.69248,-0.54932 -1.9144,0.19482 -2.94697,-0.15381c-2.08389,-0.95947 -3.21519,-4.12354 -3.90981,-6.14062c-0.43213,-1.25537 -0.55093,-2.90771 -1.16147,-3.91846z" fill="url(#color-5)"/><path d="M154.1792,170.52539c1.14844,-0.02783 2.64551,0.02344 3.75732,0.30615c-0.55664,0.10254 -0.71484,0.10547 -1.28027,0.06006c-0.3501,0.18896 -0.56104,0.79688 -0.74854,1.19385c0.38672,0.00732 0.57129,-0.01904 0.95068,-0.06152l0.11572,0.15088c-0.52295,0.41162 -2.73047,0.99463 -3.43213,1.08838c-0.66797,0.1626 -1.45166,0.41748 -2.11084,0.35156c-0.84961,0.20654 -1.52051,0.48193 -2.33496,0.79395c-1.53076,0.47607 -2.82041,0.9126 -4.30664,1.54541l0.14121,0.32666c-0.39243,0.17578 -0.59385,0.19775 -0.83965,0.50391c-1.07578,0.73535 -2.22554,1.00928 -3.34307,1.6582c-4.5334,2.63232 -8.44702,6.20947 -11.47471,10.48828c-0.65273,0.73682 -2.79185,3.98291 -3.21182,4.29199c-0.02549,-0.51123 0.47432,-0.97266 0.72231,-1.46924c-0.42788,-0.27832 -1.33594,0.05859 -1.71519,0.03955c-2.0436,-0.09668 -2.65049,2.73047 -3.72451,2.99854c0.65815,-1.2334 1.66245,-2.62354 2.46226,-3.7998c0.99858,-1.1792 1.95352,-2.47119 2.94111,-3.68701c3.50669,-4.31689 7.87236,-8.60889 12.58345,-11.62061c3.84902,-2.75977 7.92686,-4.07373 12.51475,-4.88232c0.63281,-0.15234 1.65381,-0.2168 2.3335,-0.27686z" fill="url(#color-6)"/><path d="M123.8064,190.99219c0.99858,-1.1792 1.95352,-2.47119 2.94111,-3.68701c3.50669,-4.31689 7.87236,-8.60889 12.58345,-11.62061c-0.89531,1.22314 -6.46978,4.91309 -6.47651,5.61621c1.96304,1.0708 5.06689,-1.50586 6.66797,-2.54004c1.54395,-0.99756 3.52734,-2.21924 5.26714,-2.80664l0.14121,0.32666c-0.39243,0.17578 -0.59385,0.19775 -0.83965,0.50391c-1.07578,0.73535 -2.22554,1.00928 -3.34307,1.6582c-4.5334,2.63232 -8.44702,6.20947 -11.47471,10.48828c-0.65273,0.73682 -2.79185,3.98291 -3.21182,4.29199c-0.02549,-0.51123 0.47432,-0.97266 0.72231,-1.46924c-0.42788,-0.27832 -1.33594,0.05859 -1.71519,0.03955c-2.0436,-0.09668 -2.65049,2.73047 -3.72451,2.99854c0.65815,-1.2334 1.66245,-2.62354 2.46226,-3.7998z" fill="url(#color-7)"/><path d="M154.1792,170.52539c1.14844,-0.02783 2.64551,0.02344 3.75732,0.30615c-0.55664,0.10254 -0.71484,0.10547 -1.28027,0.06006c-0.3501,0.18896 -0.56104,0.79688 -0.74854,1.19385c0.38672,0.00732 0.57129,-0.01904 0.95068,-0.06152l0.11572,0.15088c-0.52295,0.41162 -2.73047,0.99463 -3.43213,1.08838c-0.66797,0.1626 -1.45166,0.41748 -2.11084,0.35156c1.30957,-0.479 3.17139,-0.5918 3.95361,-1.90869c0.01318,-0.5083 0.07178,-0.27539 -0.1875,-0.71924c-0.31348,-0.16113 -2.69092,-0.14648 -3.35156,-0.18457c0.63281,-0.15234 1.65381,-0.2168 2.3335,-0.27686z" fill="#fe6a67"/><path d="M123.8064,190.99219c0.60601,-2.07422 2.58032,-2.96631 3.14224,-5.05518c-0.55737,0.29004 -1.59858,1.92773 -1.97051,2.49023l-0.14766,-0.0498c0.28711,-0.99463 4.06187,-5.96045 4.9481,-6.91113c5.42344,-5.81689 14.57607,-12.34424 22.78491,-11.6499c-0.14355,0.23584 -0.94922,-0.03369 -1.59082,0.3501c0.73682,0.55078 1.8457,0.1875 3.20654,0.35889c-0.67969,0.06006 -1.70068,0.12451 -2.3335,0.27686c-4.58789,0.80859 -8.66572,2.12256 -12.51475,4.88232c-4.71108,3.01172 -9.07676,7.30371 -12.58345,11.62061c-0.9876,1.21582 -1.94253,2.50781 -2.94111,3.68701z" fill="#ff5250"/><path d="M114.71807,220.22754c-0.12891,-2.10791 0.28184,-4.13818 0.30439,-6.19043c0.03618,-3.27832 -0.14736,-6.21973 1.19736,-9.31494c0.46772,-1.07666 2.34785,-6.48633 3.3416,-6.97119c-1.69717,3.5874 -3.70254,7.6084 -4.00063,11.60742c-0.21958,2.94727 0.24932,5.8623 -0.55386,8.85938c-0.16597,0.61816 -0.0167,1.32861 -0.28887,2.00977z" fill="#f80f20"/><path d="M152.01563,232.56445c2.29102,-0.81152 4.98779,-2.1167 7.19531,-3.19482c11.30566,-5.521 22.09131,-13.11328 32.01563,-20.82129c1.29639,-1.00635 2.47852,-2.19873 3.75586,-3.22852c5.77295,-4.65967 11.42285,-9.375 16.66406,-14.64258c3.9126,-4.06494 7.91602,-8.1665 11.61621,-12.43506c2.2749,-2.625 4.396,-6.14941 6.67822,-8.8623c0.75439,-0.89648 1.40771,-2.28955 2.16064,-3.26953c4.00781,-5.21484 7.16455,-10.99951 10.2832,-16.76953c0.84521,-1.6333 1.48682,-3.37646 2.30713,-5.01738c4.1748,-8.348 7.30371,-17.51484 9.07617,-26.68608c0.26807,-1.38853 0.20654,-2.746 0.39697,-4.0957c0.479,-3.39683 0.49658,-6.65596 0.52734,-10.07051c0.2168,2.44043 0.1333,4.47993 0.01465,6.90439c-0.0791,1.60415 0.03369,3.34468 -0.1377,4.95938c-1.51025,14.12974 -6.67236,27.91465 -13.43701,40.33403c-2.26025,4.14844 -4.7168,7.55127 -7.021,11.46094c-0.01611,0.12158 -0.01318,0.03076 0.03369,0.33398c0.30908,-0.22266 0.52734,-0.47021 0.84229,-0.49219l-0.09082,0.45557l0.0791,0.03369c0.57861,-1.08545 1.94092,-2.6792 2.7085,-3.78955c6.35156,-9.18604 10.71973,-18.75908 14.55029,-29.19609c1.83838,-5.00479 3.20215,-10.17129 4.0708,-15.43154c0.17432,-1.08149 0.54932,-5.00024 1.07813,-5.59556c-0.52588,6.44971 -2.1123,13.06699 -4.05908,19.22637c-2.02295,6.44648 -4.58496,12.71104 -7.66113,18.72729c-9.52002,18.39111 -24.33545,35.02734 -40.07227,48.39258c-16.97754,14.41846 -52.2876,41.39209 -75.23877,39.44678c-6.06519,-0.51416 -11.44717,-2.9707 -15.38291,-7.6875c-2.4186,-2.89893 -4.34897,-7.0166 -4.52695,-10.83105c0.61055,1.01074 0.72935,2.66309 1.16147,3.91846c0.69463,2.01709 1.82593,5.18115 3.90981,6.14063c1.03257,0.34863 1.25449,-0.39551 2.94697,0.15381c-0.13066,-0.24902 -0.03794,-0.14062 -0.29312,-0.31348l0.15688,-0.19775c0.39082,0.44092 1.39966,1.59229 1.89917,1.81055c6.96123,6.75586 20.28779,4.59814 28.4729,1.5791c0.97705,-0.36035 2.45361,-0.68994 3.31934,-1.24951z" fill="#870009"/><path d="M167.01563,171.68701c1.79443,1.44727 2.896,4.48535 3.06885,6.76025c0.68262,9.05273 -7.90869,18.09229 -14.50488,23.51221c-6.98291,5.73926 -13.46602,9.16113 -19.20176,16.56152c-5.24194,6.76465 -1.36787,12.0498 6.38994,10.4502c11.17559,-2.3042 24.19219,-10.50586 33.24492,-17.25439c1.84277,-1.36816 3.65625,-2.77295 5.44189,-4.21436c0.75146,-0.6123 2.75244,-2.33789 3.38672,-2.72314c-0.2168,0.66357 -0.84814,1.13379 -1.35498,1.61279c0.70459,-0.0791 1.11914,-0.87598 1.68604,-0.76172l-0.08203,0.51709c0.61377,0.49951 1.24365,-0.17871 1.66992,-0.60791c0.69727,-0.15674 0.53027,-0.11279 1.15137,0.30762c-2.49023,2.06104 -5.24854,4.2627 -7.69336,6.33252c-3.09814,2.09473 -6.06445,4.38574 -9.21094,6.40723c-8.12402,5.21631 -26.54897,15.70166 -36.15527,13.91455c-1.62891,-0.30322 -3.81621,-1.16602 -4.80352,-2.55029c-0.52104,-0.73096 -0.91069,-1.99072 -1.13569,-2.8623c0.11719,-1.23486 0.00352,-3.02637 0.39888,-4.22754c3.20259,-9.63867 12.71294,-15.6709 20.49346,-21.25635c7.03711,-5.12109 13.52344,-10.81494 17.00098,-19.00635c0.33838,-0.79541 1.5791,-4.16748 2.27637,-4.35791l0.4043,0.34277l0.11719,-0.0835c0.12451,-3.75732 -1.45166,-4.07959 -2.58838,-6.81299z" fill="url(#color-8)"/><path d="M233.38623,126.59282c0.85107,3.15264 -0.05127,7.3563 0.25049,9.82676c-0.20947,0.8606 -0.28857,1.95894 -0.44385,2.8667c-0.33984,2.01812 -0.78369,4.01689 -1.33301,5.98843c-1.14258,4.13643 -3.2168,9.01875 -5.2207,12.80537c-2.76123,5.21631 -6.27686,10.04883 -9.39844,15.04248c-1.11182,0.91846 -4.5835,6.32373 -5.92383,8.05957c-5.95459,7.72266 -12.56982,14.91357 -19.77246,21.48926c-0.47607,0.43213 -3.17871,2.90039 -3.63281,3.17578c-0.62109,-0.42041 -0.4541,-0.46436 -1.15137,-0.30762c-0.42627,0.4292 -1.05615,1.10742 -1.66992,0.60791l0.08203,-0.51709c-0.56689,-0.11426 -0.98145,0.68262 -1.68604,0.76172c0.50684,-0.479 1.13818,-0.94922 1.35498,-1.61279c0.19922,-0.36914 6.83496,-6.35889 7.61133,-7.11768c17.84619,-17.4624 35.76855,-42.5083 35.8374,-68.4813c0.16699,0.3936 0.1875,1.56943 0.2959,2.20972c0.07324,-0.54038 0.02637,-0.78911 0.43506,-1.13467c2.70703,-2.28237 3.07764,0.52866 4.23779,0.59854c0.45703,-0.87817 -0.00293,-3.11411 0.12744,-4.26108z" fill="url(#color-9)"/><path d="M148.49268,233.09473c8.89307,-2.97949 16.94678,-7.83838 24.8877,-12.83643c13.85156,-8.71729 26.52979,-19.40039 37.36523,-31.67871c1.00049,-1.13379 2.16064,-2.15479 3.18311,-3.28857c3.31055,-3.72217 6.48633,-7.56445 9.52148,-11.5166c1.30664,-1.69922 2.54883,-3.95947 3.90527,-5.67187c2.44629,-3.34863 5.49902,-6.98437 7.58789,-10.55859c3.60205,-6.15674 7.57617,-12.20552 10.29932,-18.80317c1.46191,-3.56118 3.29443,-7.33242 4.28467,-11.06792c0.68848,-2.59702 1.06641,-5.58706 1.95117,-8.1917c0.30469,-0.89985 0.47021,-3.82954 0.85986,-4.39482c0.08203,0.196 0.14209,0.34233 0.20947,0.5458l0.05127,0.15542c1.29932,-2.77017 1.87939,-8.39092 1.84424,-11.50137c-0.01172,-1.0147 -0.26514,-1.88101 -0.18164,-2.89468c0.07471,0.0624 0.15967,0.11484 0.22705,0.18706c0.98584,1.07241 0.74854,10.19648 0.6167,12.11045c-0.96094,13.96934 -7.11182,30.18237 -13.85889,42.37544c-0.77637,1.40332 -1.71533,2.7832 -2.54883,4.16455c-1.22168,2.02588 -2.82715,5.36572 -4.58643,6.90088c2.3042,-3.90967 4.76074,-7.3125 7.021,-11.46094c6.76465,-12.41938 11.92676,-26.2043 13.43701,-40.33403c0.17139,-1.6147 0.05859,-3.35522 0.1377,-4.95938c0.11865,-2.42446 0.20215,-4.46396 -0.01465,-6.90439c-0.03076,3.41455 -0.04834,6.67368 -0.52734,10.07051c-0.19043,1.34971 -0.12891,2.70718 -0.39697,4.0957c-1.77246,9.17124 -4.90137,18.33809 -9.07617,26.68608c-0.82031,1.64092 -1.46191,3.38408 -2.30713,5.01738c-3.11865,5.77002 -6.27539,11.55469 -10.2832,16.76953c-0.75293,0.97998 -1.40625,2.37305 -2.16064,3.26953c-2.28223,2.71289 -4.40332,6.2373 -6.67822,8.8623c-3.7002,4.26855 -7.70361,8.37012 -11.61621,12.43506c-5.24121,5.26758 -10.89111,9.98291 -16.66406,14.64258c-1.27734,1.02979 -2.45947,2.22217 -3.75586,3.22852c-9.92432,7.70801 -20.70996,15.30029 -32.01562,20.82129c-2.20752,1.07813 -4.9043,2.3833 -7.19531,3.19482c-0.86572,0.55957 -2.34229,0.88916 -3.31934,1.24951c-8.18511,3.01904 -21.51167,5.17676 -28.4729,-1.5791c0.80083,-0.0249 1.82813,0.58447 2.72358,0.89355c6.73682,3.58154 13.5126,3.25781 20.79126,1.46777c1.38618,-0.34131 3.44194,-1.31104 4.75444,-1.50146z" fill="#bb0011"/><path d="M202.11035,103.92729c1.18799,-0.11221 2.78174,-0.47183 4.03857,-0.64526c5.16797,-0.71323 9.39111,-0.86558 14.47852,0.51182c10.78125,3.47974 15.35303,13.59727 15.22412,24.38306c-0.01758,1.49253 -0.30469,2.95532 -0.37354,4.42705l-0.16846,0.13711c-0.15967,-0.52822 0.00439,-0.42729 0.07764,-0.88462c1.13525,-7.00313 -0.76465,-16.6563 -5.64551,-21.72056l-0.07617,0.04863c0.36035,0.80786 0.7251,1.95557 1.14111,2.65869c-0.03076,0.81123 -0.21094,0.7314 -0.94482,1.11738l-0.07764,0.23936c3.02783,5.66045 4.41504,11.49214 4.22168,17.94082c-0.03076,1.07402 0.07764,3.37793 -0.36914,4.27881c-0.30176,-2.47046 0.60059,-6.67412 -0.25049,-9.82676c-0.11133,-1.96978 -0.85547,-5.05605 -1.47217,-6.9394c-1.75049,-5.35034 -4.5835,-9.52427 -9.65625,-12.13535c-7.95996,-4.09673 -17.73486,-1.33667 -25.63037,1.60796c-2.08447,0.77725 -4.67285,2.03672 -6.6416,2.66895l-0.14355,0.04438c1.37109,-1.32612 10.52344,-4.39146 12.87158,-5.03921c1.27441,-0.35186 4.46924,-1.03521 5.85938,-1.2334c0.00146,-0.03062 0.00293,-0.06108 0.00293,-0.0917c-0.24902,-0.5584 -0.14795,-1.40537 -0.20947,-2.15303c-1.6333,-0.23013 -6.00293,0.73784 -7.67871,1.2145l0.44385,-0.3958c0.43066,-0.04731 0.56689,-0.09639 0.97852,-0.21343z" fill="#bb0011"/><path d="M202.11035,103.92729c3.44824,-1.92554 15.98145,-3.3605 18.51709,-0.13345c-5.0874,-1.37739 -9.31055,-1.22505 -14.47852,-0.51182c-1.25684,0.17344 -2.85059,0.53306 -4.03857,0.64526z" fill="#fb1f2b"/><path d="M200.68799,104.53652c-0.73535,0.17446 -2.05371,0.9397 -2.89746,1.14683c-3.43506,0.8436 -6.87451,2.50869 -10.13818,3.58008l-0.18604,-0.09873c0.93018,-0.50273 1.83838,-0.78809 2.83594,-1.1332c2.80664,-0.97104 7.90576,-4.51846 10.82959,-3.89077z" fill="#fb1f2b"/><path d="M117.68657,229.42529c1.21289,0.33398 4.06421,2.80664 5.2604,3.70313c-0.89546,-0.30908 -1.92275,-0.91846 -2.72358,-0.89355c-0.49951,-0.21826 -1.50835,-1.36963 -1.89917,-1.81055c-0.17695,-0.3252 -0.43096,-0.68555 -0.63765,-0.99902z" fill="#fb1f2b"/><path d="M130.35015,82.79546c0.72642,-0.77139 5.63188,-3.50273 6.77095,-4.15181c14.71436,-8.38491 30.71191,-15.20039 47.43018,-18.27012c1.03271,-0.18955 8.11816,-1.3519 8.60889,-0.91992c-0.60645,0.03179 -1.30225,0.00952 -1.84277,0.25122c-0.02783,0.87334 1.54395,3.25928 1.86914,4.27544c1.17627,3.67646 -1.94531,5.77339 -4.78564,7.31045c-6.69141,3.62095 -13.96436,6.27305 -20.61475,10.00195c-3.49805,1.95923 -7.18213,3.5187 -10.57617,5.64551c-3.67383,2.41025 -7.31836,4.88818 -11.07202,7.17598c-1.22021,0.74385 -2.06499,1.83428 -3.32344,2.4939c-8.2834,4.34077 -14.84253,10.77949 -22.42515,16.09263c-0.91802,0.64336 -1.83853,1.68179 -2.76738,2.35181c-7.64824,5.79492 -15.50376,12.03032 -24.9709,14.48218c-1.45928,0.37793 -3.25313,0.92227 -4.73203,0.92769c0.85898,-1.06597 1.64048,-2.94214 2.31621,-3.9624c1.54614,-2.33438 5.42139,-8.91636 7.29434,-10.51304c0.3832,-0.9769 6.65024,-8.28984 7.71562,-9.38408c0.87817,-1.09072 2.96968,-3.12261 3.99419,-4.16279l-0.21372,-0.08789c-0.89121,0.70576 -2.75493,1.38486 -3.62915,0.37178c-0.11748,-0.54521 0.09551,-0.83628 0.33193,-1.35498c0.26074,-0.35947 2.31475,-2.15361 2.77617,-2.55688c5.06309,-4.4187 10.39951,-8.51396 15.97778,-12.26118c1.6229,-1.10054 4.15474,-2.86509 5.86772,-3.75542z" fill="url(#color-10)"/><path d="M130.35015,82.79546l0.58872,0.01538c0.50962,2.55776 -6.08936,5.5623 -6.6293,6.89531l0.07324,0.19028c2.94683,-2.06968 5.73911,-4.03813 8.89995,-5.77134c0.7957,-0.43623 1.56064,-1.12412 2.41758,-1.425c0.15073,0.62534 -0.32285,2.04038 -0.24404,3.01333c0.15132,1.86797 -3.1229,6.44824 -4.26826,7.88203c-1.15444,1.44521 -3.90029,3.72188 -5.32236,4.97314c-3.73843,3.34263 -7.59595,6.54961 -11.56494,9.61465c-3.06768,2.41318 -13.72983,10.65908 -17.4665,9.27173c-0.04717,-0.55869 0.46172,-0.62256 0.69536,-1.46807c0.3832,-0.9769 6.65024,-8.28984 7.71562,-9.38408c0.87817,-1.09072 2.96968,-3.12261 3.99419,-4.16279l-0.21372,-0.08789c-0.89121,0.70576 -2.75493,1.38486 -3.62915,0.37178c-0.11748,-0.54521 0.09551,-0.83628 0.33193,-1.35498c0.26074,-0.35947 2.31475,-2.15361 2.77617,-2.55688c5.06309,-4.4187 10.39951,-8.51396 15.97778,-12.26118c1.6229,-1.10054 4.15474,-2.86509 5.86772,-3.75542z" fill="url(#color-11)"/><path d="M130.35015,82.79546l0.58872,0.01538c0.50962,2.55776 -6.08936,5.5623 -6.6293,6.89531l0.07324,0.19028c-0.95581,0.78574 -4.39966,3.09463 -4.92407,3.7418c-3.17534,2.26978 -5.91255,4.80088 -8.76108,7.44478c-0.36899,0.34248 -1.08779,1.10303 -1.45825,1.35703l-0.21372,-0.08789c-0.89121,0.70576 -2.75493,1.38486 -3.62915,0.37178c-0.11748,-0.54521 0.09551,-0.83628 0.33193,-1.35498c0.26074,-0.35947 2.31475,-2.15361 2.77617,-2.55688c5.06309,-4.4187 10.39951,-8.51396 15.97778,-12.26118c1.6229,-1.10054 4.15474,-2.86509 5.86772,-3.75542z" fill="#ffaca9"/><path d="M109.2394,102.44004c0.37046,-0.254 1.08926,-1.01455 1.45825,-1.35703c2.84854,-2.6439 5.58574,-5.175 8.76108,-7.44478c0.0249,3.31963 -12.37866,14.01621 -14.21353,12.9646c0.87817,-1.09072 2.96968,-3.12261 3.99419,-4.16279z" fill="#ffe1db"/><path d="M212.04346,58.54673c1.2832,0.10723 7.1792,0.58579 7.91309,1.17729c1.29053,0.27422 5.14893,1.6916 5.87549,1.7395c1.08252,0.19673 1.94824,0.60073 3,0.80815l-0.05566,-0.04453c4.3667,1.25962 8.0918,4.13291 10.41797,8.03716c2.95752,2.94346 1.55273,4.1354 -1.85449,5.62808c0.20508,0.2855 0.28271,0.38291 0.52441,0.63765l-0.13916,0.04717c-0.81006,-0.65889 -1.52051,-1.29478 -2.29541,-1.99658c-0.76611,-0.09316 -1.54102,-1.08735 -2.10645,-1.55083c-0.76758,-0.6312 -3.42187,-1.22593 -4.56885,-1.5731l-0.04834,0.21255c0.30322,0.22339 0.17285,0.10547 0.3999,0.34497l-0.19629,0.09961c-0.64746,-0.03853 -0.93311,0.0668 -1.33447,-0.29326l0.0498,-0.3561c0.26074,-0.19995 0.35596,-0.27231 0.66943,-0.36357c-1.11182,-0.52295 -1.16162,-0.74312 -2.10645,-1.3377c-2.04639,-1.28745 -4.62158,-2.31753 -6.2373,-4.17158c-0.58154,-0.66826 -0.73682,-2.12534 -1.5249,-2.76709c-1.05322,-0.85723 -4.32275,-1.33008 -4.94678,-2.23594l-0.13477,-0.09229c-0.80713,-0.13916 -2.78906,-0.76963 -3.7749,-1.01426c0.97266,-0.63223 1.40771,0.01538 2.47412,-0.9353z" fill="url(#color-12)"/><path d="M213.479,60.58857c3.60645,0.89766 5.2251,2.4293 7.83545,3.36313c1.70215,0.95142 3.9624,2.66616 5.25146,3.3438c0.98438,0.96987 2.84033,2.1542 3.98438,3.05903c1.51172,1.1959 2.9165,2.41143 4.37549,3.67251l0.06445,-0.11528c-0.14648,-0.40532 -0.44824,-0.502 -0.87305,-0.81401c0.19043,-0.28052 1.13232,0.30688 2.04639,-0.07192c0.91406,-0.32886 1.771,-0.94307 2.18848,-1.8627c0.69434,-1.52754 -1.29492,-1.65454 -1.71973,-3.05405c0.99756,0.63604 1.67432,1.44639 2.56201,2.15522c2.95752,2.94346 1.55273,4.1354 -1.85449,5.62808c0.20508,0.2855 0.28271,0.38291 0.52441,0.63765l-0.13916,0.04717c-0.81006,-0.65889 -1.52051,-1.29478 -2.29541,-1.99658c-0.76611,-0.09316 -1.54102,-1.08735 -2.10645,-1.55083c-0.76758,-0.6312 -3.42187,-1.22593 -4.56885,-1.5731l-0.04834,0.21255c0.30322,0.22339 0.17285,0.10547 0.3999,0.34497l-0.19629,0.09961c-0.64746,-0.03853 -0.93311,0.0668 -1.33447,-0.29326l0.0498,-0.3561c0.26074,-0.19995 0.35596,-0.27231 0.66943,-0.36357c-1.11182,-0.52295 -1.16162,-0.74312 -2.10645,-1.3377c-2.04639,-1.28745 -4.62158,-2.31753 -6.2373,-4.17158c-0.58154,-0.66826 -0.73682,-2.12534 -1.5249,-2.76709c-1.05322,-0.85723 -4.32275,-1.33008 -4.94678,-2.23594z" fill="#ff5250"/><path d="M221.31445,63.95171l0.20215,-0.11602c0.52588,0.22808 0.56689,0.26733 1.04004,0.60732l0.1626,-0.06606c-0.40283,-0.4563 -0.52734,-0.42144 -0.49951,-0.8584c2.72314,-2.18994 7.53076,0.62798 9.72803,2.44863c0.1377,0.11411 0.23584,0.3394 0.2959,0.50303l-0.15088,0.03018c-0.76904,-0.7437 -0.92725,-0.91978 -1.94678,-1.22915l-0.11279,0.0835l0.1626,0.54331c-0.38379,0.68628 -1.1792,0.49995 -1.90869,0.53628c0.91406,0.96606 2.73926,1.25361 3.41748,2.02119c-0.78955,0.77168 -4.2627,-0.72788 -5.13867,-1.16001c-1.28906,-0.67764 -3.54932,-2.39238 -5.25146,-3.3438z" fill="#ffe1db"/><path d="M225.83203,61.46353c1.08252,0.19673 1.94824,0.60073 3,0.80815l-0.05566,-0.04453c4.3667,1.25962 8.0918,4.13291 10.41797,8.03716c-0.8877,-0.70884 -1.56445,-1.51919 -2.56201,-2.15522c-4.32861,-3.7793 -6.09229,-4.2605 -10.80029,-6.64556z" fill="#fb1f2b"/><path d="M212.04346,58.54673c1.2832,0.10723 7.1792,0.58579 7.91309,1.17729c-1.60547,0.00366 -3.25049,-0.43462 -4.8501,-0.63076c-1.69482,-0.20786 -1.91162,-0.09258 -3.33105,0.65654c0.47168,0.15205 1.38135,0.30205 1.56885,0.74648c-0.80713,-0.13916 -2.78906,-0.76963 -3.7749,-1.01426c0.97266,-0.63223 1.40771,0.01538 2.47412,-0.9353z" fill="#fe6a67"/><path d="M208.07813,186.23877c2.84033,-2.8418 5.90918,-7.02686 8.39795,-10.16016c7.74023,-9.75146 14.08008,-20.40088 19.14697,-31.75708c1.17188,-2.62412 2.7334,-5.10923 3.83496,-7.82988c0.9668,1.84849 -0.30322,5.01694 0.71484,6.01846c0.10254,0.53013 -0.64453,2.09766 -0.87012,2.63291c-2.05371,4.87017 -4.5293,9.88872 -7.57324,14.23052c-5.47852,7.81641 -11.25732,15.46436 -17.67187,22.54395c-0.48926,0.53906 -1.03857,1.13086 -1.63623,1.55273c-0.99023,0.65479 -2.52979,0.90674 -3.11426,1.9541c-0.22705,0.40576 -0.646,0.60791 -1.05908,0.82324z" fill="#fe6a67"/><path d="M87.91904,130.46235c-0.20479,0.49365 -1.61909,3.14268 -1.90767,3.55327c-0.13242,-0.34819 -0.03706,-0.99404 0.14487,-1.31162c1.38765,-2.47441 2.82334,-4.92158 4.30635,-7.34019c0.38145,-0.61069 0.84126,-1.07798 1.27412,-1.74697c-0.09829,-0.16538 -2.73047,-1.81567 -3.17915,-2.10674c-0.76553,0.56235 -3.38643,4.49385 -3.89019,5.39985l-0.15703,0.00044c0.02124,-0.04409 0.04233,-0.08818 0.06357,-0.13228l0.1103,-0.21841c0.4916,-0.9895 1.08472,-1.64004 1.69746,-2.56421c4.61777,-6.96504 12.96416,-17.20078 19.34678,-22.62656c-0.23643,0.5187 -0.44941,0.80977 -0.33193,1.35498c0.87422,1.01309 2.73794,0.33398 3.62915,-0.37178l0.21372,0.08789c-1.02451,1.04019 -3.11602,3.07207 -3.99419,4.16279c-1.06538,1.09424 -7.33242,8.40718 -7.71562,9.38408c-1.87295,1.59668 -5.74819,8.17866 -7.29434,10.51304c-0.67573,1.02026 -1.45723,2.89644 -2.31621,3.9624z" fill="url(#color-13)"/><path d="M143.47354,114.2417l0.05728,0.00425l0.07017,0.10884c-0.60439,0.33911 -1.53369,0.80889 -2.05664,1.21128c-5.2292,4.02334 -10.01191,7.26577 -14.66191,12.01333c1.26167,-0.51079 5.77881,-3.14561 6.35244,-3.248l-0.14927,0.37866c-0.33589,0.21621 -0.9312,0.3063 -1.42002,0.58257c-1.23105,0.6958 -2.58853,1.44595 -3.82441,2.10791c-6.9873,3.74224 -21.44458,11.93276 -29.07422,12.47695c-1.6106,0.10386 -3.59048,-0.00498 -5.23022,-0.05142l-0.00044,-0.06855c1.17041,-0.01846 5.25249,0.1686 5.83389,-0.2458c-0.76934,-1.10083 -2.83228,0.27729 -4.1877,-0.11177c10.97183,-0.71909 25.33418,-12.02109 34.75972,-17.60698c4.56387,-2.70454 8.82026,-5.04814 13.53135,-7.55127z" fill="#ff5250"/><path d="M123.60688,151.90869l0.08408,0.15381c-1.40376,0.95947 -2.78833,1.5542 -4.08296,2.39941c-2.65723,1.7373 -4.30942,3.05713 -7.22344,4.33447c-3.52061,1.54248 -6.61846,2.56201 -10.31309,3.60791c-0.64526,0.22412 -1.19092,0.39844 -1.87192,0.38086c7.97446,-1.90137 16.39175,-6.68848 23.40732,-10.87646z" fill="#ff5250"/><path d="M205.18066,58.8605c2.03174,-0.127 4.97168,-0.53599 6.86279,-0.31377c-1.06641,0.95068 -1.50146,0.30308 -2.47412,0.9353c-0.30615,0.02153 -3.79541,-0.53701 -4.38867,-0.62153z" fill="#ff5250"/></g></svg></svg>